<mxfile host="app.diagrams.net" agent="Mozilla/5.0 (Windows NT 10.0; Win64; x64) AppleWebKit/537.36 (KHTML, like Gecko) Chrome/135.0.0.0 Safari/537.36" version="27.0.2">
  <diagram name="Page-1" id="dcfof-V45sXxPMEZk9gB">
    <mxGraphModel dx="6030" dy="2717" grid="1" gridSize="10" guides="1" tooltips="1" connect="1" arrows="1" fold="1" page="1" pageScale="1" pageWidth="850" pageHeight="1100" math="0" shadow="0">
      <root>
        <mxCell id="0" />
        <mxCell id="1" parent="0" />
        <mxCell id="RkTjTqVy_v2ha96Wf5Js-1" value="" style="rounded=0;whiteSpace=wrap;html=1;" parent="1" vertex="1">
          <mxGeometry x="-330" y="110" width="1000" height="980" as="geometry" />
        </mxCell>
        <mxCell id="RkTjTqVy_v2ha96Wf5Js-2" value="" style="endArrow=none;html=1;rounded=0;entryX=0.25;entryY=0;entryDx=0;entryDy=0;exitX=0.268;exitY=1;exitDx=0;exitDy=0;exitPerimeter=0;" parent="1" source="RkTjTqVy_v2ha96Wf5Js-1" edge="1">
          <mxGeometry width="50" height="50" relative="1" as="geometry">
            <mxPoint x="-59.99999999999977" y="1050" as="sourcePoint" />
            <mxPoint x="-59.99999999999977" y="110" as="targetPoint" />
          </mxGeometry>
        </mxCell>
        <mxCell id="RkTjTqVy_v2ha96Wf5Js-3" value="" style="endArrow=none;html=1;rounded=0;entryX=0.25;entryY=0;entryDx=0;entryDy=0;" parent="1" edge="1">
          <mxGeometry width="50" height="50" relative="1" as="geometry">
            <mxPoint x="280" y="1090" as="sourcePoint" />
            <mxPoint x="275" y="110" as="targetPoint" />
            <Array as="points" />
          </mxGeometry>
        </mxCell>
        <mxCell id="RkTjTqVy_v2ha96Wf5Js-4" value="Student" style="text;html=1;align=center;verticalAlign=middle;resizable=0;points=[];autosize=1;strokeColor=none;fillColor=none;" parent="1" vertex="1">
          <mxGeometry x="-200" y="110" width="60" height="30" as="geometry" />
        </mxCell>
        <mxCell id="RkTjTqVy_v2ha96Wf5Js-9" value="" style="edgeStyle=orthogonalEdgeStyle;rounded=0;orthogonalLoop=1;jettySize=auto;html=1;entryX=0.5;entryY=0;entryDx=0;entryDy=0;" parent="1" source="RkTjTqVy_v2ha96Wf5Js-5" target="RkTjTqVy_v2ha96Wf5Js-10" edge="1">
          <mxGeometry relative="1" as="geometry">
            <mxPoint x="45" y="180.05263157894728" as="targetPoint" />
          </mxGeometry>
        </mxCell>
        <mxCell id="RkTjTqVy_v2ha96Wf5Js-5" value="login" style="rounded=1;whiteSpace=wrap;html=1;" parent="1" vertex="1">
          <mxGeometry x="-210" y="170" width="80" height="40" as="geometry" />
        </mxCell>
        <mxCell id="RkTjTqVy_v2ha96Wf5Js-6" value="system" style="text;html=1;align=center;verticalAlign=middle;resizable=0;points=[];autosize=1;strokeColor=none;fillColor=none;" parent="1" vertex="1">
          <mxGeometry y="110" width="60" height="30" as="geometry" />
        </mxCell>
        <mxCell id="RkTjTqVy_v2ha96Wf5Js-19" value="" style="edgeStyle=orthogonalEdgeStyle;rounded=0;orthogonalLoop=1;jettySize=auto;html=1;" parent="1" source="RkTjTqVy_v2ha96Wf5Js-10" target="RkTjTqVy_v2ha96Wf5Js-18" edge="1">
          <mxGeometry relative="1" as="geometry" />
        </mxCell>
        <mxCell id="RkTjTqVy_v2ha96Wf5Js-21" value="" style="edgeStyle=orthogonalEdgeStyle;rounded=0;orthogonalLoop=1;jettySize=auto;html=1;" parent="1" source="RkTjTqVy_v2ha96Wf5Js-10" target="RkTjTqVy_v2ha96Wf5Js-20" edge="1">
          <mxGeometry relative="1" as="geometry">
            <Array as="points">
              <mxPoint x="140" y="290" />
            </Array>
          </mxGeometry>
        </mxCell>
        <mxCell id="RkTjTqVy_v2ha96Wf5Js-10" value="" style="rhombus;whiteSpace=wrap;html=1;rounded=1;" parent="1" vertex="1">
          <mxGeometry x="50" y="270" width="50" height="40" as="geometry" />
        </mxCell>
        <mxCell id="RkTjTqVy_v2ha96Wf5Js-38" style="edgeStyle=orthogonalEdgeStyle;rounded=0;orthogonalLoop=1;jettySize=auto;html=1;entryX=0.5;entryY=1;entryDx=0;entryDy=0;" parent="1" source="RkTjTqVy_v2ha96Wf5Js-18" target="RkTjTqVy_v2ha96Wf5Js-5" edge="1">
          <mxGeometry relative="1" as="geometry" />
        </mxCell>
        <mxCell id="RkTjTqVy_v2ha96Wf5Js-18" value="reject login" style="whiteSpace=wrap;html=1;rounded=1;" parent="1" vertex="1">
          <mxGeometry x="-30" y="320" width="70" height="30" as="geometry" />
        </mxCell>
        <mxCell id="RkTjTqVy_v2ha96Wf5Js-25" style="edgeStyle=orthogonalEdgeStyle;rounded=0;orthogonalLoop=1;jettySize=auto;html=1;entryX=0.419;entryY=0.048;entryDx=0;entryDy=0;entryPerimeter=0;" parent="1" source="RkTjTqVy_v2ha96Wf5Js-20" target="RkTjTqVy_v2ha96Wf5Js-24" edge="1">
          <mxGeometry relative="1" as="geometry">
            <Array as="points">
              <mxPoint x="-160" y="400" />
            </Array>
          </mxGeometry>
        </mxCell>
        <mxCell id="RkTjTqVy_v2ha96Wf5Js-20" value="show list" style="whiteSpace=wrap;html=1;rounded=1;" parent="1" vertex="1">
          <mxGeometry x="-94.37" y="350" width="80" height="50" as="geometry" />
        </mxCell>
        <mxCell id="RkTjTqVy_v2ha96Wf5Js-28" style="edgeStyle=orthogonalEdgeStyle;rounded=0;orthogonalLoop=1;jettySize=auto;html=1;entryX=0;entryY=0.5;entryDx=0;entryDy=0;" parent="1" target="RkTjTqVy_v2ha96Wf5Js-27" edge="1">
          <mxGeometry relative="1" as="geometry">
            <mxPoint x="-180.0026315789474" y="469.97" as="sourcePoint" />
            <mxPoint x="-4.949999999999989" y="474.97" as="targetPoint" />
            <Array as="points">
              <mxPoint x="-180" y="480" />
              <mxPoint x="-5" y="480" />
              <mxPoint x="-5" y="475" />
            </Array>
          </mxGeometry>
        </mxCell>
        <mxCell id="RkTjTqVy_v2ha96Wf5Js-24" value="submit course" style="rounded=1;whiteSpace=wrap;html=1;" parent="1" vertex="1">
          <mxGeometry x="-210" y="420" width="120" height="50" as="geometry" />
        </mxCell>
        <mxCell id="RkTjTqVy_v2ha96Wf5Js-31" value="" style="edgeStyle=orthogonalEdgeStyle;rounded=0;orthogonalLoop=1;jettySize=auto;html=1;" parent="1" source="RkTjTqVy_v2ha96Wf5Js-27" target="RkTjTqVy_v2ha96Wf5Js-30" edge="1">
          <mxGeometry relative="1" as="geometry" />
        </mxCell>
        <mxCell id="RkTjTqVy_v2ha96Wf5Js-27" value="check each course" style="rounded=1;whiteSpace=wrap;html=1;" parent="1" vertex="1">
          <mxGeometry x="25" y="460" width="100" height="30" as="geometry" />
        </mxCell>
        <mxCell id="RkTjTqVy_v2ha96Wf5Js-33" value="" style="edgeStyle=orthogonalEdgeStyle;rounded=0;orthogonalLoop=1;jettySize=auto;html=1;" parent="1" source="RkTjTqVy_v2ha96Wf5Js-30" target="RkTjTqVy_v2ha96Wf5Js-32" edge="1">
          <mxGeometry relative="1" as="geometry" />
        </mxCell>
        <mxCell id="RkTjTqVy_v2ha96Wf5Js-41" value="" style="edgeStyle=orthogonalEdgeStyle;rounded=0;orthogonalLoop=1;jettySize=auto;html=1;" parent="1" source="RkTjTqVy_v2ha96Wf5Js-30" target="RkTjTqVy_v2ha96Wf5Js-40" edge="1">
          <mxGeometry relative="1" as="geometry" />
        </mxCell>
        <mxCell id="RkTjTqVy_v2ha96Wf5Js-46" style="edgeStyle=orthogonalEdgeStyle;rounded=0;orthogonalLoop=1;jettySize=auto;html=1;" parent="1" source="RkTjTqVy_v2ha96Wf5Js-30" target="RkTjTqVy_v2ha96Wf5Js-44" edge="1">
          <mxGeometry relative="1" as="geometry" />
        </mxCell>
        <mxCell id="RkTjTqVy_v2ha96Wf5Js-30" value="" style="rhombus;whiteSpace=wrap;html=1;rounded=1;" parent="1" vertex="1">
          <mxGeometry x="45" y="528" width="60" height="45" as="geometry" />
        </mxCell>
        <mxCell id="RkTjTqVy_v2ha96Wf5Js-36" value="" style="edgeStyle=orthogonalEdgeStyle;rounded=0;orthogonalLoop=1;jettySize=auto;html=1;exitX=0.5;exitY=1;exitDx=0;exitDy=0;" parent="1" source="RkTjTqVy_v2ha96Wf5Js-71" target="RkTjTqVy_v2ha96Wf5Js-35" edge="1">
          <mxGeometry relative="1" as="geometry">
            <Array as="points">
              <mxPoint x="-160" y="590" />
              <mxPoint x="-160" y="600" />
            </Array>
          </mxGeometry>
        </mxCell>
        <mxCell id="RkTjTqVy_v2ha96Wf5Js-72" value="" style="edgeStyle=orthogonalEdgeStyle;rounded=0;orthogonalLoop=1;jettySize=auto;html=1;" parent="1" source="RkTjTqVy_v2ha96Wf5Js-32" target="RkTjTqVy_v2ha96Wf5Js-71" edge="1">
          <mxGeometry relative="1" as="geometry" />
        </mxCell>
        <mxCell id="RkTjTqVy_v2ha96Wf5Js-32" value="notify student prerequisites unmet" style="whiteSpace=wrap;html=1;rounded=1;" parent="1" vertex="1">
          <mxGeometry x="-120" y="545" width="100" height="50" as="geometry" />
        </mxCell>
        <mxCell id="RkTjTqVy_v2ha96Wf5Js-35" value="prepare a meeting with academic advisor" style="whiteSpace=wrap;html=1;rounded=1;" parent="1" vertex="1">
          <mxGeometry x="240" y="590.5" width="120" height="60" as="geometry" />
        </mxCell>
        <mxCell id="RkTjTqVy_v2ha96Wf5Js-37" value="advisor" style="text;html=1;align=center;verticalAlign=middle;resizable=0;points=[];autosize=1;strokeColor=none;fillColor=none;" parent="1" vertex="1">
          <mxGeometry x="320" y="110" width="60" height="30" as="geometry" />
        </mxCell>
        <mxCell id="QjxZSAQlPto41OZPQsrg-2" style="edgeStyle=orthogonalEdgeStyle;rounded=0;orthogonalLoop=1;jettySize=auto;html=1;entryX=0.5;entryY=1;entryDx=0;entryDy=0;" parent="1" source="RkTjTqVy_v2ha96Wf5Js-40" target="QjxZSAQlPto41OZPQsrg-1" edge="1">
          <mxGeometry relative="1" as="geometry" />
        </mxCell>
        <mxCell id="RkTjTqVy_v2ha96Wf5Js-40" value="waiting list for course" style="whiteSpace=wrap;html=1;rounded=1;" parent="1" vertex="1">
          <mxGeometry x="158.75" y="530.5" width="85" height="40" as="geometry" />
        </mxCell>
        <mxCell id="RkTjTqVy_v2ha96Wf5Js-48" value="" style="edgeStyle=orthogonalEdgeStyle;rounded=0;orthogonalLoop=1;jettySize=auto;html=1;entryX=1;entryY=0.25;entryDx=0;entryDy=0;" parent="1" source="RkTjTqVy_v2ha96Wf5Js-44" target="RkTjTqVy_v2ha96Wf5Js-51" edge="1">
          <mxGeometry relative="1" as="geometry">
            <Array as="points">
              <mxPoint x="-80" y="650" />
              <mxPoint x="-80" y="700" />
              <mxPoint x="-150" y="700" />
            </Array>
            <mxPoint x="-117.5" y="700" as="targetPoint" />
          </mxGeometry>
        </mxCell>
        <mxCell id="RkTjTqVy_v2ha96Wf5Js-44" value="generate preliminary registration slip" style="rounded=1;whiteSpace=wrap;html=1;" parent="1" vertex="1">
          <mxGeometry x="15" y="620" width="115" height="60" as="geometry" />
        </mxCell>
        <mxCell id="RkTjTqVy_v2ha96Wf5Js-81" value="" style="edgeStyle=orthogonalEdgeStyle;rounded=0;orthogonalLoop=1;jettySize=auto;html=1;entryX=0.5;entryY=0;entryDx=0;entryDy=0;" parent="1" source="RkTjTqVy_v2ha96Wf5Js-49" target="RkTjTqVy_v2ha96Wf5Js-80" edge="1">
          <mxGeometry relative="1" as="geometry">
            <mxPoint x="180" y="1180" as="targetPoint" />
          </mxGeometry>
        </mxCell>
        <mxCell id="RkTjTqVy_v2ha96Wf5Js-49" value="cancelled" style="whiteSpace=wrap;html=1;rounded=1;" parent="1" vertex="1">
          <mxGeometry x="-25" y="750" width="70" height="40" as="geometry" />
        </mxCell>
        <mxCell id="QjxZSAQlPto41OZPQsrg-9" style="edgeStyle=orthogonalEdgeStyle;rounded=0;orthogonalLoop=1;jettySize=auto;html=1;entryX=0.5;entryY=0;entryDx=0;entryDy=0;" parent="1" source="RkTjTqVy_v2ha96Wf5Js-51" target="QjxZSAQlPto41OZPQsrg-8" edge="1">
          <mxGeometry relative="1" as="geometry" />
        </mxCell>
        <mxCell id="RkTjTqVy_v2ha96Wf5Js-51" value="confirm the slip" style="whiteSpace=wrap;html=1;rounded=1;" parent="1" vertex="1">
          <mxGeometry x="-240" y="690" width="90" height="50" as="geometry" />
        </mxCell>
        <mxCell id="RkTjTqVy_v2ha96Wf5Js-58" value="" style="edgeStyle=orthogonalEdgeStyle;rounded=0;orthogonalLoop=1;jettySize=auto;html=1;exitX=0;exitY=0.5;exitDx=0;exitDy=0;" parent="1" source="RkTjTqVy_v2ha96Wf5Js-53" edge="1">
          <mxGeometry relative="1" as="geometry">
            <mxPoint x="460" y="845" as="sourcePoint" />
            <mxPoint x="-5" y="898" as="targetPoint" />
          </mxGeometry>
        </mxCell>
        <mxCell id="RkTjTqVy_v2ha96Wf5Js-53" value="generate fee" style="whiteSpace=wrap;html=1;rounded=1;" parent="1" vertex="1">
          <mxGeometry x="480" y="820" width="90" height="50" as="geometry" />
        </mxCell>
        <mxCell id="RkTjTqVy_v2ha96Wf5Js-100" style="edgeStyle=orthogonalEdgeStyle;rounded=0;orthogonalLoop=1;jettySize=auto;html=1;entryX=0;entryY=0.5;entryDx=0;entryDy=0;" parent="1" source="RkTjTqVy_v2ha96Wf5Js-61" target="RkTjTqVy_v2ha96Wf5Js-80" edge="1">
          <mxGeometry relative="1" as="geometry">
            <Array as="points">
              <mxPoint x="-10" y="1195" />
            </Array>
          </mxGeometry>
        </mxCell>
        <mxCell id="RkTjTqVy_v2ha96Wf5Js-61" value="send confimation" style="whiteSpace=wrap;html=1;rounded=1;" parent="1" vertex="1">
          <mxGeometry x="-55.62" y="1000" width="101.25" height="40" as="geometry" />
        </mxCell>
        <mxCell id="RkTjTqVy_v2ha96Wf5Js-86" style="edgeStyle=orthogonalEdgeStyle;rounded=0;orthogonalLoop=1;jettySize=auto;html=1;entryX=1;entryY=0.5;entryDx=0;entryDy=0;" parent="1" source="RkTjTqVy_v2ha96Wf5Js-65" target="RkTjTqVy_v2ha96Wf5Js-80" edge="1">
          <mxGeometry relative="1" as="geometry" />
        </mxCell>
        <mxCell id="RkTjTqVy_v2ha96Wf5Js-65" value="cancelled" style="whiteSpace=wrap;html=1;rounded=1;" parent="1" vertex="1">
          <mxGeometry x="200" y="890" width="65" height="55" as="geometry" />
        </mxCell>
        <mxCell id="RkTjTqVy_v2ha96Wf5Js-67" value="accept" style="text;html=1;align=center;verticalAlign=middle;resizable=0;points=[];autosize=1;strokeColor=none;fillColor=none;" parent="1" vertex="1">
          <mxGeometry x="98.75" y="260" width="60" height="30" as="geometry" />
        </mxCell>
        <mxCell id="RkTjTqVy_v2ha96Wf5Js-68" value="reject&lt;div&gt;&lt;br&gt;&lt;/div&gt;" style="text;html=1;align=center;verticalAlign=middle;resizable=0;points=[];autosize=1;strokeColor=none;fillColor=none;" parent="1" vertex="1">
          <mxGeometry y="260" width="50" height="40" as="geometry" />
        </mxCell>
        <mxCell id="RkTjTqVy_v2ha96Wf5Js-69" value="prerequisites unmet" style="text;html=1;align=center;verticalAlign=middle;resizable=0;points=[];autosize=1;strokeColor=none;fillColor=none;" parent="1" vertex="1">
          <mxGeometry x="-70" y="520" width="130" height="30" as="geometry" />
        </mxCell>
        <mxCell id="RkTjTqVy_v2ha96Wf5Js-70" value="submit another course" style="text;html=1;align=center;verticalAlign=middle;resizable=0;points=[];autosize=1;strokeColor=none;fillColor=none;" parent="1" vertex="1">
          <mxGeometry x="-270" y="490" width="140" height="30" as="geometry" />
        </mxCell>
        <mxCell id="QjxZSAQlPto41OZPQsrg-20" style="edgeStyle=orthogonalEdgeStyle;rounded=0;orthogonalLoop=1;jettySize=auto;html=1;entryX=0;entryY=0.25;entryDx=0;entryDy=0;" parent="1" source="RkTjTqVy_v2ha96Wf5Js-71" target="RkTjTqVy_v2ha96Wf5Js-20" edge="1">
          <mxGeometry relative="1" as="geometry">
            <Array as="points">
              <mxPoint x="-265" y="372" />
              <mxPoint x="-160" y="372" />
              <mxPoint x="-160" y="362" />
            </Array>
          </mxGeometry>
        </mxCell>
        <mxCell id="RkTjTqVy_v2ha96Wf5Js-71" value="" style="rhombus;whiteSpace=wrap;html=1;rounded=1;" parent="1" vertex="1">
          <mxGeometry x="-290" y="540" width="50" height="50.5" as="geometry" />
        </mxCell>
        <mxCell id="RkTjTqVy_v2ha96Wf5Js-74" value="meet with advisor" style="text;html=1;align=center;verticalAlign=middle;resizable=0;points=[];autosize=1;strokeColor=none;fillColor=none;" parent="1" vertex="1">
          <mxGeometry x="-270" y="595" width="120" height="30" as="geometry" />
        </mxCell>
        <mxCell id="RkTjTqVy_v2ha96Wf5Js-76" value="full" style="text;html=1;align=center;verticalAlign=middle;resizable=0;points=[];autosize=1;strokeColor=none;fillColor=none;" parent="1" vertex="1">
          <mxGeometry x="98.75" y="520" width="40" height="30" as="geometry" />
        </mxCell>
        <mxCell id="RkTjTqVy_v2ha96Wf5Js-77" value="accept" style="text;html=1;align=center;verticalAlign=middle;resizable=0;points=[];autosize=1;strokeColor=none;fillColor=none;" parent="1" vertex="1">
          <mxGeometry x="25" y="565" width="60" height="30" as="geometry" />
        </mxCell>
        <mxCell id="RkTjTqVy_v2ha96Wf5Js-78" value="didnt confirm under 3 days" style="text;html=1;align=center;verticalAlign=middle;resizable=0;points=[];autosize=1;strokeColor=none;fillColor=none;" parent="1" vertex="1">
          <mxGeometry x="-180" y="740" width="160" height="30" as="geometry" />
        </mxCell>
        <mxCell id="RkTjTqVy_v2ha96Wf5Js-80" value="" style="ellipse;whiteSpace=wrap;html=1;rounded=1;" parent="1" vertex="1">
          <mxGeometry x="158.75" y="1170" width="50" height="50" as="geometry" />
        </mxCell>
        <mxCell id="RkTjTqVy_v2ha96Wf5Js-84" value="" style="endArrow=none;html=1;rounded=0;entryX=0.25;entryY=0;entryDx=0;entryDy=0;" parent="1" edge="1">
          <mxGeometry width="50" height="50" relative="1" as="geometry">
            <mxPoint x="445" y="1090" as="sourcePoint" />
            <mxPoint x="440" y="110" as="targetPoint" />
            <Array as="points" />
          </mxGeometry>
        </mxCell>
        <mxCell id="RkTjTqVy_v2ha96Wf5Js-85" value="finance department" style="text;html=1;align=center;verticalAlign=middle;resizable=0;points=[];autosize=1;strokeColor=none;fillColor=none;" parent="1" vertex="1">
          <mxGeometry x="490" y="110" width="130" height="30" as="geometry" />
        </mxCell>
        <mxCell id="RkTjTqVy_v2ha96Wf5Js-89" value="" style="endArrow=none;dashed=1;html=1;rounded=0;entryX=1;entryY=0.5;entryDx=0;entryDy=0;exitX=0;exitY=0.5;exitDx=0;exitDy=0;" parent="1" source="RkTjTqVy_v2ha96Wf5Js-90" target="RkTjTqVy_v2ha96Wf5Js-44" edge="1">
          <mxGeometry width="50" height="50" relative="1" as="geometry">
            <mxPoint x="280" y="710" as="sourcePoint" />
            <mxPoint x="160" y="730" as="targetPoint" />
          </mxGeometry>
        </mxCell>
        <mxCell id="RkTjTqVy_v2ha96Wf5Js-90" value="list of courses selected&amp;nbsp;" style="rounded=0;whiteSpace=wrap;html=1;" parent="1" vertex="1">
          <mxGeometry x="170" y="670" width="90" height="50" as="geometry" />
        </mxCell>
        <mxCell id="RkTjTqVy_v2ha96Wf5Js-92" value="" style="endArrow=none;dashed=1;html=1;rounded=0;exitX=1;exitY=0.5;exitDx=0;exitDy=0;entryX=0.5;entryY=0;entryDx=0;entryDy=0;" parent="1" source="RkTjTqVy_v2ha96Wf5Js-90" target="RkTjTqVy_v2ha96Wf5Js-53" edge="1">
          <mxGeometry width="50" height="50" relative="1" as="geometry">
            <mxPoint x="490" y="750" as="sourcePoint" />
            <mxPoint x="540" y="700" as="targetPoint" />
          </mxGeometry>
        </mxCell>
        <mxCell id="RkTjTqVy_v2ha96Wf5Js-98" style="edgeStyle=orthogonalEdgeStyle;rounded=0;orthogonalLoop=1;jettySize=auto;html=1;entryX=0;entryY=0.5;entryDx=0;entryDy=0;" parent="1" source="RkTjTqVy_v2ha96Wf5Js-95" target="RkTjTqVy_v2ha96Wf5Js-65" edge="1">
          <mxGeometry relative="1" as="geometry" />
        </mxCell>
        <mxCell id="RkTjTqVy_v2ha96Wf5Js-99" style="edgeStyle=orthogonalEdgeStyle;rounded=0;orthogonalLoop=1;jettySize=auto;html=1;" parent="1" source="RkTjTqVy_v2ha96Wf5Js-95" target="RkTjTqVy_v2ha96Wf5Js-61" edge="1">
          <mxGeometry relative="1" as="geometry">
            <Array as="points">
              <mxPoint x="-5" y="980" />
            </Array>
          </mxGeometry>
        </mxCell>
        <mxCell id="RkTjTqVy_v2ha96Wf5Js-95" value="" style="rhombus;whiteSpace=wrap;html=1;rounded=1;" parent="1" vertex="1">
          <mxGeometry x="-31.25" y="897.5" width="52.5" height="60" as="geometry" />
        </mxCell>
        <mxCell id="5QLYkeLEnGZxO2FNjTHX-1" value="select another course" style="text;html=1;align=center;verticalAlign=middle;resizable=0;points=[];autosize=1;strokeColor=none;fillColor=none;" parent="1" vertex="1">
          <mxGeometry x="105" y="380" width="140" height="30" as="geometry" />
        </mxCell>
        <mxCell id="5QLYkeLEnGZxO2FNjTHX-3" style="edgeStyle=orthogonalEdgeStyle;rounded=0;orthogonalLoop=1;jettySize=auto;html=1;entryX=0.5;entryY=0;entryDx=0;entryDy=0;" parent="1" source="5QLYkeLEnGZxO2FNjTHX-2" target="RkTjTqVy_v2ha96Wf5Js-5" edge="1">
          <mxGeometry relative="1" as="geometry" />
        </mxCell>
        <mxCell id="5QLYkeLEnGZxO2FNjTHX-2" value="" style="ellipse;whiteSpace=wrap;html=1;rounded=1;" parent="1" vertex="1">
          <mxGeometry x="-210" y="30" width="50" height="50" as="geometry" />
        </mxCell>
        <mxCell id="QjxZSAQlPto41OZPQsrg-3" style="edgeStyle=orthogonalEdgeStyle;rounded=0;orthogonalLoop=1;jettySize=auto;html=1;entryX=1;entryY=0.25;entryDx=0;entryDy=0;" parent="1" source="QjxZSAQlPto41OZPQsrg-1" target="RkTjTqVy_v2ha96Wf5Js-27" edge="1">
          <mxGeometry relative="1" as="geometry" />
        </mxCell>
        <mxCell id="QjxZSAQlPto41OZPQsrg-4" style="edgeStyle=orthogonalEdgeStyle;rounded=0;orthogonalLoop=1;jettySize=auto;html=1;entryX=1;entryY=0.75;entryDx=0;entryDy=0;exitX=0.5;exitY=0;exitDx=0;exitDy=0;" parent="1" source="QjxZSAQlPto41OZPQsrg-1" target="RkTjTqVy_v2ha96Wf5Js-20" edge="1">
          <mxGeometry relative="1" as="geometry">
            <Array as="points">
              <mxPoint x="239" y="390" />
              <mxPoint x="50" y="390" />
            </Array>
          </mxGeometry>
        </mxCell>
        <mxCell id="QjxZSAQlPto41OZPQsrg-1" value="" style="rhombus;whiteSpace=wrap;html=1;rounded=1;" parent="1" vertex="1">
          <mxGeometry x="208.75" y="445" width="60" height="45" as="geometry" />
        </mxCell>
        <mxCell id="QjxZSAQlPto41OZPQsrg-5" value="available seats" style="text;html=1;align=center;verticalAlign=middle;resizable=0;points=[];autosize=1;strokeColor=none;fillColor=none;" parent="1" vertex="1">
          <mxGeometry x="120" y="440" width="100" height="30" as="geometry" />
        </mxCell>
        <mxCell id="QjxZSAQlPto41OZPQsrg-10" style="edgeStyle=orthogonalEdgeStyle;rounded=0;orthogonalLoop=1;jettySize=auto;html=1;entryX=0;entryY=0.75;entryDx=0;entryDy=0;" parent="1" source="QjxZSAQlPto41OZPQsrg-8" target="RkTjTqVy_v2ha96Wf5Js-49" edge="1">
          <mxGeometry relative="1" as="geometry" />
        </mxCell>
        <mxCell id="QjxZSAQlPto41OZPQsrg-12" style="edgeStyle=orthogonalEdgeStyle;rounded=0;orthogonalLoop=1;jettySize=auto;html=1;entryX=0;entryY=0.25;entryDx=0;entryDy=0;" parent="1" source="QjxZSAQlPto41OZPQsrg-8" target="RkTjTqVy_v2ha96Wf5Js-53" edge="1">
          <mxGeometry relative="1" as="geometry">
            <Array as="points">
              <mxPoint x="-195" y="830" />
              <mxPoint x="152" y="830" />
              <mxPoint x="152" y="833" />
            </Array>
          </mxGeometry>
        </mxCell>
        <mxCell id="QjxZSAQlPto41OZPQsrg-8" value="" style="rhombus;whiteSpace=wrap;html=1;rounded=1;" parent="1" vertex="1">
          <mxGeometry x="-213.12" y="770" width="36.25" height="40" as="geometry" />
        </mxCell>
        <mxCell id="QjxZSAQlPto41OZPQsrg-14" value="confirmed" style="text;html=1;align=center;verticalAlign=middle;resizable=0;points=[];autosize=1;strokeColor=none;fillColor=none;" parent="1" vertex="1">
          <mxGeometry x="-200" y="810" width="80" height="30" as="geometry" />
        </mxCell>
        <mxCell id="QjxZSAQlPto41OZPQsrg-15" value="payes" style="text;html=1;align=center;verticalAlign=middle;resizable=0;points=[];autosize=1;strokeColor=none;fillColor=none;" parent="1" vertex="1">
          <mxGeometry x="-14.370000000000005" y="957.5" width="60" height="30" as="geometry" />
        </mxCell>
        <mxCell id="s8pdHtV7nh9pB5C_U3Tf-1" value="" style="rounded=0;whiteSpace=wrap;html=1;" vertex="1" parent="1">
          <mxGeometry x="1240" y="12.38" width="1190" height="1287.62" as="geometry" />
        </mxCell>
        <mxCell id="s8pdHtV7nh9pB5C_U3Tf-4" value="Student" style="text;html=1;align=center;verticalAlign=middle;resizable=0;points=[];autosize=1;strokeColor=none;fillColor=none;" vertex="1" parent="1">
          <mxGeometry x="1410" y="22.380000000000003" width="60" height="30" as="geometry" />
        </mxCell>
        <mxCell id="s8pdHtV7nh9pB5C_U3Tf-7" value="System" style="text;html=1;align=center;verticalAlign=middle;resizable=0;points=[];autosize=1;strokeColor=none;fillColor=none;" vertex="1" parent="1">
          <mxGeometry x="1760" y="22.380000000000003" width="60" height="30" as="geometry" />
        </mxCell>
        <mxCell id="s8pdHtV7nh9pB5C_U3Tf-54" value="Finance department" style="text;html=1;align=center;verticalAlign=middle;resizable=0;points=[];autosize=1;strokeColor=none;fillColor=none;" vertex="1" parent="1">
          <mxGeometry x="2260" y="22.380000000000003" width="130" height="30" as="geometry" />
        </mxCell>
        <mxCell id="s8pdHtV7nh9pB5C_U3Tf-75" style="edgeStyle=orthogonalEdgeStyle;rounded=0;orthogonalLoop=1;jettySize=auto;html=1;exitX=0.5;exitY=1;exitDx=0;exitDy=0;entryX=0.5;entryY=0;entryDx=0;entryDy=0;" edge="1" parent="1" source="s8pdHtV7nh9pB5C_U3Tf-73" target="s8pdHtV7nh9pB5C_U3Tf-74">
          <mxGeometry relative="1" as="geometry" />
        </mxCell>
        <mxCell id="s8pdHtV7nh9pB5C_U3Tf-73" value="" style="ellipse;whiteSpace=wrap;html=1;rounded=1;" vertex="1" parent="1">
          <mxGeometry x="1410" y="92.38" width="20" height="20" as="geometry" />
        </mxCell>
        <mxCell id="s8pdHtV7nh9pB5C_U3Tf-78" style="edgeStyle=orthogonalEdgeStyle;rounded=0;orthogonalLoop=1;jettySize=auto;html=1;exitX=1;exitY=0.5;exitDx=0;exitDy=0;" edge="1" parent="1" source="s8pdHtV7nh9pB5C_U3Tf-74" target="s8pdHtV7nh9pB5C_U3Tf-77">
          <mxGeometry relative="1" as="geometry" />
        </mxCell>
        <mxCell id="s8pdHtV7nh9pB5C_U3Tf-74" value="Login" style="rounded=1;whiteSpace=wrap;html=1;" vertex="1" parent="1">
          <mxGeometry x="1380" y="142.38" width="80" height="40" as="geometry" />
        </mxCell>
        <mxCell id="s8pdHtV7nh9pB5C_U3Tf-76" value="" style="endArrow=none;html=1;rounded=0;" edge="1" parent="1">
          <mxGeometry width="50" height="50" relative="1" as="geometry">
            <mxPoint x="1610" y="12.38" as="sourcePoint" />
            <mxPoint x="1610" y="1310" as="targetPoint" />
          </mxGeometry>
        </mxCell>
        <mxCell id="s8pdHtV7nh9pB5C_U3Tf-79" style="edgeStyle=orthogonalEdgeStyle;rounded=0;orthogonalLoop=1;jettySize=auto;html=1;exitX=0.5;exitY=1;exitDx=0;exitDy=0;entryX=0.5;entryY=1;entryDx=0;entryDy=0;" edge="1" parent="1" source="s8pdHtV7nh9pB5C_U3Tf-77" target="s8pdHtV7nh9pB5C_U3Tf-74">
          <mxGeometry relative="1" as="geometry" />
        </mxCell>
        <mxCell id="s8pdHtV7nh9pB5C_U3Tf-81" style="edgeStyle=orthogonalEdgeStyle;rounded=0;orthogonalLoop=1;jettySize=auto;html=1;exitX=1;exitY=0.5;exitDx=0;exitDy=0;" edge="1" parent="1" source="s8pdHtV7nh9pB5C_U3Tf-77" target="s8pdHtV7nh9pB5C_U3Tf-80">
          <mxGeometry relative="1" as="geometry" />
        </mxCell>
        <mxCell id="s8pdHtV7nh9pB5C_U3Tf-77" value="" style="rhombus;whiteSpace=wrap;html=1;rounded=1;" vertex="1" parent="1">
          <mxGeometry x="1680" y="142.38" width="50" height="40" as="geometry" />
        </mxCell>
        <mxCell id="s8pdHtV7nh9pB5C_U3Tf-83" style="edgeStyle=orthogonalEdgeStyle;rounded=0;orthogonalLoop=1;jettySize=auto;html=1;exitX=0;exitY=0.5;exitDx=0;exitDy=0;entryX=1;entryY=0.5;entryDx=0;entryDy=0;" edge="1" parent="1" source="s8pdHtV7nh9pB5C_U3Tf-80" target="s8pdHtV7nh9pB5C_U3Tf-82">
          <mxGeometry relative="1" as="geometry" />
        </mxCell>
        <mxCell id="s8pdHtV7nh9pB5C_U3Tf-80" value="Show List" style="whiteSpace=wrap;html=1;rounded=1;" vertex="1" parent="1">
          <mxGeometry x="1720" y="252.38" width="80" height="50" as="geometry" />
        </mxCell>
        <mxCell id="s8pdHtV7nh9pB5C_U3Tf-87" style="edgeStyle=orthogonalEdgeStyle;rounded=0;orthogonalLoop=1;jettySize=auto;html=1;exitX=0.5;exitY=1;exitDx=0;exitDy=0;entryX=0;entryY=0.5;entryDx=0;entryDy=0;" edge="1" parent="1" source="s8pdHtV7nh9pB5C_U3Tf-82" target="s8pdHtV7nh9pB5C_U3Tf-86">
          <mxGeometry relative="1" as="geometry" />
        </mxCell>
        <mxCell id="s8pdHtV7nh9pB5C_U3Tf-82" value="Submit Courses" style="whiteSpace=wrap;html=1;rounded=1;" vertex="1" parent="1">
          <mxGeometry x="1380" y="252.38" width="80" height="50" as="geometry" />
        </mxCell>
        <mxCell id="s8pdHtV7nh9pB5C_U3Tf-84" value="accept" style="text;html=1;align=center;verticalAlign=middle;resizable=0;points=[];autosize=1;strokeColor=none;fillColor=none;" vertex="1" parent="1">
          <mxGeometry x="1720" y="132.38" width="60" height="30" as="geometry" />
        </mxCell>
        <mxCell id="s8pdHtV7nh9pB5C_U3Tf-85" value="Reject" style="text;html=1;align=center;verticalAlign=middle;resizable=0;points=[];autosize=1;strokeColor=none;fillColor=none;" vertex="1" parent="1">
          <mxGeometry x="1610" y="172.38" width="60" height="30" as="geometry" />
        </mxCell>
        <mxCell id="s8pdHtV7nh9pB5C_U3Tf-89" style="edgeStyle=orthogonalEdgeStyle;rounded=0;orthogonalLoop=1;jettySize=auto;html=1;exitX=0.5;exitY=1;exitDx=0;exitDy=0;" edge="1" parent="1" source="s8pdHtV7nh9pB5C_U3Tf-86" target="s8pdHtV7nh9pB5C_U3Tf-88">
          <mxGeometry relative="1" as="geometry" />
        </mxCell>
        <mxCell id="s8pdHtV7nh9pB5C_U3Tf-86" value="Check Each Course" style="whiteSpace=wrap;html=1;rounded=1;" vertex="1" parent="1">
          <mxGeometry x="1720" y="352.38" width="80" height="50" as="geometry" />
        </mxCell>
        <mxCell id="s8pdHtV7nh9pB5C_U3Tf-105" style="edgeStyle=orthogonalEdgeStyle;rounded=0;orthogonalLoop=1;jettySize=auto;html=1;exitX=1;exitY=0.5;exitDx=0;exitDy=0;entryX=0;entryY=0.5;entryDx=0;entryDy=0;" edge="1" parent="1" source="s8pdHtV7nh9pB5C_U3Tf-88" target="s8pdHtV7nh9pB5C_U3Tf-104">
          <mxGeometry relative="1" as="geometry" />
        </mxCell>
        <mxCell id="s8pdHtV7nh9pB5C_U3Tf-120" style="edgeStyle=orthogonalEdgeStyle;rounded=0;orthogonalLoop=1;jettySize=auto;html=1;exitX=0.5;exitY=1;exitDx=0;exitDy=0;entryX=0.5;entryY=0;entryDx=0;entryDy=0;" edge="1" parent="1" source="s8pdHtV7nh9pB5C_U3Tf-88" target="s8pdHtV7nh9pB5C_U3Tf-119">
          <mxGeometry relative="1" as="geometry" />
        </mxCell>
        <mxCell id="s8pdHtV7nh9pB5C_U3Tf-88" value="" style="rhombus;whiteSpace=wrap;html=1;rounded=1;" vertex="1" parent="1">
          <mxGeometry x="1730" y="439.88" width="60" height="45" as="geometry" />
        </mxCell>
        <mxCell id="s8pdHtV7nh9pB5C_U3Tf-94" style="edgeStyle=orthogonalEdgeStyle;rounded=0;orthogonalLoop=1;jettySize=auto;html=1;exitX=0;exitY=0.5;exitDx=0;exitDy=0;entryX=1;entryY=0.5;entryDx=0;entryDy=0;" edge="1" parent="1" source="s8pdHtV7nh9pB5C_U3Tf-88" target="s8pdHtV7nh9pB5C_U3Tf-91">
          <mxGeometry relative="1" as="geometry" />
        </mxCell>
        <mxCell id="s8pdHtV7nh9pB5C_U3Tf-186" style="edgeStyle=orthogonalEdgeStyle;rounded=0;orthogonalLoop=1;jettySize=auto;html=1;exitX=0;exitY=0.5;exitDx=0;exitDy=0;entryX=1;entryY=0.5;entryDx=0;entryDy=0;" edge="1" parent="1" source="s8pdHtV7nh9pB5C_U3Tf-91" target="s8pdHtV7nh9pB5C_U3Tf-185">
          <mxGeometry relative="1" as="geometry" />
        </mxCell>
        <mxCell id="s8pdHtV7nh9pB5C_U3Tf-91" value="Notify Student Prerequisits unmet" style="whiteSpace=wrap;html=1;rounded=1;" vertex="1" parent="1">
          <mxGeometry x="1620" y="437.38" width="80" height="50" as="geometry" />
        </mxCell>
        <mxCell id="s8pdHtV7nh9pB5C_U3Tf-92" value="Prerequisits Unmet" style="text;html=1;align=center;verticalAlign=middle;resizable=0;points=[];autosize=1;strokeColor=none;fillColor=none;" vertex="1" parent="1">
          <mxGeometry x="1610" y="415" width="130" height="30" as="geometry" />
        </mxCell>
        <mxCell id="s8pdHtV7nh9pB5C_U3Tf-100" style="edgeStyle=orthogonalEdgeStyle;rounded=0;orthogonalLoop=1;jettySize=auto;html=1;exitX=0.5;exitY=1;exitDx=0;exitDy=0;entryX=0;entryY=0.5;entryDx=0;entryDy=0;" edge="1" parent="1" source="s8pdHtV7nh9pB5C_U3Tf-95" target="s8pdHtV7nh9pB5C_U3Tf-98">
          <mxGeometry relative="1" as="geometry" />
        </mxCell>
        <mxCell id="s8pdHtV7nh9pB5C_U3Tf-113" style="edgeStyle=orthogonalEdgeStyle;rounded=0;orthogonalLoop=1;jettySize=auto;html=1;exitX=0.5;exitY=0;exitDx=0;exitDy=0;entryX=0;entryY=0;entryDx=0;entryDy=0;" edge="1" parent="1" source="s8pdHtV7nh9pB5C_U3Tf-95" target="s8pdHtV7nh9pB5C_U3Tf-80">
          <mxGeometry relative="1" as="geometry" />
        </mxCell>
        <mxCell id="s8pdHtV7nh9pB5C_U3Tf-95" value="" style="rhombus;whiteSpace=wrap;html=1;rounded=1;" vertex="1" parent="1">
          <mxGeometry x="1310" y="439.88" width="60" height="45" as="geometry" />
        </mxCell>
        <mxCell id="s8pdHtV7nh9pB5C_U3Tf-152" style="edgeStyle=orthogonalEdgeStyle;rounded=0;orthogonalLoop=1;jettySize=auto;html=1;exitX=0.5;exitY=1;exitDx=0;exitDy=0;entryX=1;entryY=0.5;entryDx=0;entryDy=0;" edge="1" parent="1" source="s8pdHtV7nh9pB5C_U3Tf-98" target="s8pdHtV7nh9pB5C_U3Tf-117">
          <mxGeometry relative="1" as="geometry" />
        </mxCell>
        <mxCell id="s8pdHtV7nh9pB5C_U3Tf-98" value="Notify Meeting" style="whiteSpace=wrap;html=1;rounded=1;" vertex="1" parent="1">
          <mxGeometry x="2055" y="535.38" width="95" height="54.62" as="geometry" />
        </mxCell>
        <mxCell id="s8pdHtV7nh9pB5C_U3Tf-99" value="" style="endArrow=none;html=1;rounded=0;" edge="1" parent="1" source="s8pdHtV7nh9pB5C_U3Tf-162">
          <mxGeometry width="50" height="50" relative="1" as="geometry">
            <mxPoint x="1980" y="12.38" as="sourcePoint" />
            <mxPoint x="1980" y="1310" as="targetPoint" />
          </mxGeometry>
        </mxCell>
        <mxCell id="s8pdHtV7nh9pB5C_U3Tf-101" value="No: submit another course" style="text;html=1;align=center;verticalAlign=middle;resizable=0;points=[];autosize=1;strokeColor=none;fillColor=none;" vertex="1" parent="1">
          <mxGeometry x="1340" y="399.88" width="160" height="30" as="geometry" />
        </mxCell>
        <mxCell id="s8pdHtV7nh9pB5C_U3Tf-102" value="Yes: meet with advisor" style="text;html=1;align=center;verticalAlign=middle;resizable=0;points=[];autosize=1;strokeColor=none;fillColor=none;" vertex="1" parent="1">
          <mxGeometry x="1340" y="527.38" width="140" height="30" as="geometry" />
        </mxCell>
        <mxCell id="s8pdHtV7nh9pB5C_U3Tf-109" style="edgeStyle=orthogonalEdgeStyle;rounded=0;orthogonalLoop=1;jettySize=auto;html=1;exitX=0.5;exitY=0;exitDx=0;exitDy=0;" edge="1" parent="1" source="s8pdHtV7nh9pB5C_U3Tf-104" target="s8pdHtV7nh9pB5C_U3Tf-107">
          <mxGeometry relative="1" as="geometry" />
        </mxCell>
        <mxCell id="s8pdHtV7nh9pB5C_U3Tf-104" value="Waiting List for course" style="whiteSpace=wrap;html=1;rounded=1;" vertex="1" parent="1">
          <mxGeometry x="1850" y="437.38" width="80" height="50" as="geometry" />
        </mxCell>
        <mxCell id="s8pdHtV7nh9pB5C_U3Tf-106" value="full" style="text;html=1;align=center;verticalAlign=middle;resizable=0;points=[];autosize=1;strokeColor=none;fillColor=none;" vertex="1" parent="1">
          <mxGeometry x="1800" y="422.38" width="40" height="30" as="geometry" />
        </mxCell>
        <mxCell id="s8pdHtV7nh9pB5C_U3Tf-108" style="edgeStyle=orthogonalEdgeStyle;rounded=0;orthogonalLoop=1;jettySize=auto;html=1;exitX=0.5;exitY=0;exitDx=0;exitDy=0;entryX=1;entryY=0.5;entryDx=0;entryDy=0;" edge="1" parent="1" source="s8pdHtV7nh9pB5C_U3Tf-107" target="s8pdHtV7nh9pB5C_U3Tf-80">
          <mxGeometry relative="1" as="geometry" />
        </mxCell>
        <mxCell id="s8pdHtV7nh9pB5C_U3Tf-110" style="edgeStyle=orthogonalEdgeStyle;rounded=0;orthogonalLoop=1;jettySize=auto;html=1;exitX=0;exitY=0.5;exitDx=0;exitDy=0;entryX=1;entryY=0.5;entryDx=0;entryDy=0;" edge="1" parent="1" source="s8pdHtV7nh9pB5C_U3Tf-107" target="s8pdHtV7nh9pB5C_U3Tf-86">
          <mxGeometry relative="1" as="geometry" />
        </mxCell>
        <mxCell id="s8pdHtV7nh9pB5C_U3Tf-107" value="" style="rhombus;whiteSpace=wrap;html=1;rounded=1;" vertex="1" parent="1">
          <mxGeometry x="1860" y="354.88" width="60" height="45" as="geometry" />
        </mxCell>
        <mxCell id="s8pdHtV7nh9pB5C_U3Tf-111" value="Available seats" style="text;html=1;align=center;verticalAlign=middle;resizable=0;points=[];autosize=1;strokeColor=none;fillColor=none;" vertex="1" parent="1">
          <mxGeometry x="1790" y="332.38" width="100" height="30" as="geometry" />
        </mxCell>
        <mxCell id="s8pdHtV7nh9pB5C_U3Tf-112" value="Select another course" style="text;html=1;align=center;verticalAlign=middle;resizable=0;points=[];autosize=1;strokeColor=none;fillColor=none;" vertex="1" parent="1">
          <mxGeometry x="1800" y="252.38" width="140" height="30" as="geometry" />
        </mxCell>
        <mxCell id="s8pdHtV7nh9pB5C_U3Tf-115" value="Advisor" style="text;html=1;align=center;verticalAlign=middle;resizable=0;points=[];autosize=1;strokeColor=none;fillColor=none;" vertex="1" parent="1">
          <mxGeometry x="2065" y="22.380000000000003" width="60" height="30" as="geometry" />
        </mxCell>
        <mxCell id="s8pdHtV7nh9pB5C_U3Tf-116" value="" style="endArrow=none;html=1;rounded=0;" edge="1" parent="1">
          <mxGeometry width="50" height="50" relative="1" as="geometry">
            <mxPoint x="2210" y="12.38" as="sourcePoint" />
            <mxPoint x="2210" y="1300" as="targetPoint" />
          </mxGeometry>
        </mxCell>
        <mxCell id="s8pdHtV7nh9pB5C_U3Tf-117" value="" style="ellipse;whiteSpace=wrap;html=1;rounded=1;" vertex="1" parent="1">
          <mxGeometry x="1808.75" y="1240" width="22.5" height="20" as="geometry" />
        </mxCell>
        <mxCell id="s8pdHtV7nh9pB5C_U3Tf-155" style="edgeStyle=orthogonalEdgeStyle;rounded=0;orthogonalLoop=1;jettySize=auto;html=1;exitX=0;exitY=0.5;exitDx=0;exitDy=0;entryX=0.5;entryY=0;entryDx=0;entryDy=0;" edge="1" parent="1" source="s8pdHtV7nh9pB5C_U3Tf-119" target="s8pdHtV7nh9pB5C_U3Tf-122">
          <mxGeometry relative="1" as="geometry" />
        </mxCell>
        <mxCell id="s8pdHtV7nh9pB5C_U3Tf-119" value="Generate preliminary registration slip" style="rounded=1;whiteSpace=wrap;html=1;" vertex="1" parent="1">
          <mxGeometry x="1702.5" y="572.38" width="115" height="60" as="geometry" />
        </mxCell>
        <mxCell id="s8pdHtV7nh9pB5C_U3Tf-121" value="accept" style="text;html=1;align=center;verticalAlign=middle;resizable=0;points=[];autosize=1;strokeColor=none;fillColor=none;" vertex="1" parent="1">
          <mxGeometry x="1700" y="497.38" width="60" height="30" as="geometry" />
        </mxCell>
        <mxCell id="s8pdHtV7nh9pB5C_U3Tf-128" style="edgeStyle=orthogonalEdgeStyle;rounded=0;orthogonalLoop=1;jettySize=auto;html=1;exitX=0.5;exitY=1;exitDx=0;exitDy=0;entryX=0.5;entryY=0;entryDx=0;entryDy=0;" edge="1" parent="1" source="s8pdHtV7nh9pB5C_U3Tf-122" target="s8pdHtV7nh9pB5C_U3Tf-127">
          <mxGeometry relative="1" as="geometry" />
        </mxCell>
        <mxCell id="s8pdHtV7nh9pB5C_U3Tf-122" value="Confirmation Slip" style="whiteSpace=wrap;html=1;rounded=1;" vertex="1" parent="1">
          <mxGeometry x="1390" y="625" width="90" height="50" as="geometry" />
        </mxCell>
        <mxCell id="s8pdHtV7nh9pB5C_U3Tf-132" style="edgeStyle=orthogonalEdgeStyle;rounded=0;orthogonalLoop=1;jettySize=auto;html=1;exitX=0.5;exitY=1;exitDx=0;exitDy=0;entryX=0;entryY=0.5;entryDx=0;entryDy=0;" edge="1" parent="1" source="s8pdHtV7nh9pB5C_U3Tf-127" target="s8pdHtV7nh9pB5C_U3Tf-130">
          <mxGeometry relative="1" as="geometry" />
        </mxCell>
        <mxCell id="s8pdHtV7nh9pB5C_U3Tf-174" style="edgeStyle=orthogonalEdgeStyle;rounded=0;orthogonalLoop=1;jettySize=auto;html=1;exitX=1;exitY=0.5;exitDx=0;exitDy=0;entryX=0.5;entryY=0;entryDx=0;entryDy=0;" edge="1" parent="1" source="s8pdHtV7nh9pB5C_U3Tf-127" target="s8pdHtV7nh9pB5C_U3Tf-142">
          <mxGeometry relative="1" as="geometry" />
        </mxCell>
        <mxCell id="s8pdHtV7nh9pB5C_U3Tf-127" value="" style="rhombus;whiteSpace=wrap;html=1;rounded=1;" vertex="1" parent="1">
          <mxGeometry x="1405" y="725" width="60" height="45" as="geometry" />
        </mxCell>
        <mxCell id="s8pdHtV7nh9pB5C_U3Tf-156" style="edgeStyle=orthogonalEdgeStyle;rounded=0;orthogonalLoop=1;jettySize=auto;html=1;exitX=1;exitY=0.5;exitDx=0;exitDy=0;entryX=0.5;entryY=0;entryDx=0;entryDy=0;" edge="1" parent="1" source="s8pdHtV7nh9pB5C_U3Tf-130" target="s8pdHtV7nh9pB5C_U3Tf-136">
          <mxGeometry relative="1" as="geometry" />
        </mxCell>
        <mxCell id="s8pdHtV7nh9pB5C_U3Tf-130" value="Generate Fee" style="whiteSpace=wrap;html=1;rounded=1;" vertex="1" parent="1">
          <mxGeometry x="1715" y="790" width="90" height="50" as="geometry" />
        </mxCell>
        <mxCell id="s8pdHtV7nh9pB5C_U3Tf-131" value="Confirmed" style="text;html=1;align=center;verticalAlign=middle;resizable=0;points=[];autosize=1;strokeColor=none;fillColor=none;" vertex="1" parent="1">
          <mxGeometry x="1460" y="780" width="80" height="30" as="geometry" />
        </mxCell>
        <mxCell id="s8pdHtV7nh9pB5C_U3Tf-133" value="Didnt confirm under 3 days" style="text;html=1;align=center;verticalAlign=middle;resizable=0;points=[];autosize=1;strokeColor=none;fillColor=none;" vertex="1" parent="1">
          <mxGeometry x="1445" y="710" width="170" height="30" as="geometry" />
        </mxCell>
        <mxCell id="s8pdHtV7nh9pB5C_U3Tf-189" style="edgeStyle=orthogonalEdgeStyle;rounded=0;orthogonalLoop=1;jettySize=auto;html=1;exitX=0;exitY=0.5;exitDx=0;exitDy=0;entryX=1;entryY=0.5;entryDx=0;entryDy=0;" edge="1" parent="1" source="s8pdHtV7nh9pB5C_U3Tf-134" target="s8pdHtV7nh9pB5C_U3Tf-188">
          <mxGeometry relative="1" as="geometry" />
        </mxCell>
        <mxCell id="s8pdHtV7nh9pB5C_U3Tf-134" value="Ask for payment" style="whiteSpace=wrap;html=1;rounded=1;" vertex="1" parent="1">
          <mxGeometry x="1670" y="890" width="90" height="50" as="geometry" />
        </mxCell>
        <mxCell id="s8pdHtV7nh9pB5C_U3Tf-157" style="edgeStyle=orthogonalEdgeStyle;rounded=0;orthogonalLoop=1;jettySize=auto;html=1;exitX=0;exitY=0.5;exitDx=0;exitDy=0;entryX=0.5;entryY=0;entryDx=0;entryDy=0;" edge="1" parent="1" source="s8pdHtV7nh9pB5C_U3Tf-136" target="s8pdHtV7nh9pB5C_U3Tf-134">
          <mxGeometry relative="1" as="geometry" />
        </mxCell>
        <mxCell id="s8pdHtV7nh9pB5C_U3Tf-136" value="Generate Bill/Invoice" style="whiteSpace=wrap;html=1;rounded=1;" vertex="1" parent="1">
          <mxGeometry x="2250" y="840" width="90" height="50" as="geometry" />
        </mxCell>
        <mxCell id="s8pdHtV7nh9pB5C_U3Tf-143" style="edgeStyle=orthogonalEdgeStyle;rounded=0;orthogonalLoop=1;jettySize=auto;html=1;exitX=1;exitY=0.5;exitDx=0;exitDy=0;entryX=0;entryY=0.5;entryDx=0;entryDy=0;" edge="1" parent="1" source="s8pdHtV7nh9pB5C_U3Tf-139" target="s8pdHtV7nh9pB5C_U3Tf-142">
          <mxGeometry relative="1" as="geometry" />
        </mxCell>
        <mxCell id="s8pdHtV7nh9pB5C_U3Tf-179" style="edgeStyle=orthogonalEdgeStyle;rounded=0;orthogonalLoop=1;jettySize=auto;html=1;exitX=0.5;exitY=1;exitDx=0;exitDy=0;entryX=0;entryY=0.5;entryDx=0;entryDy=0;" edge="1" parent="1" source="s8pdHtV7nh9pB5C_U3Tf-139" target="s8pdHtV7nh9pB5C_U3Tf-146">
          <mxGeometry relative="1" as="geometry" />
        </mxCell>
        <mxCell id="s8pdHtV7nh9pB5C_U3Tf-139" value="" style="rhombus;whiteSpace=wrap;html=1;rounded=1;" vertex="1" parent="1">
          <mxGeometry x="1430" y="975" width="60" height="45" as="geometry" />
        </mxCell>
        <mxCell id="s8pdHtV7nh9pB5C_U3Tf-175" style="edgeStyle=orthogonalEdgeStyle;rounded=0;orthogonalLoop=1;jettySize=auto;html=1;exitX=0.5;exitY=1;exitDx=0;exitDy=0;entryX=0.5;entryY=0;entryDx=0;entryDy=0;" edge="1" parent="1" source="s8pdHtV7nh9pB5C_U3Tf-142" target="s8pdHtV7nh9pB5C_U3Tf-117">
          <mxGeometry relative="1" as="geometry" />
        </mxCell>
        <mxCell id="s8pdHtV7nh9pB5C_U3Tf-142" value="Cancelled" style="whiteSpace=wrap;html=1;rounded=1;" vertex="1" parent="1">
          <mxGeometry x="1775" y="972.5" width="90" height="50" as="geometry" />
        </mxCell>
        <mxCell id="s8pdHtV7nh9pB5C_U3Tf-181" style="edgeStyle=orthogonalEdgeStyle;rounded=0;orthogonalLoop=1;jettySize=auto;html=1;exitX=0.5;exitY=1;exitDx=0;exitDy=0;entryX=0.5;entryY=0;entryDx=0;entryDy=0;" edge="1" parent="1" source="s8pdHtV7nh9pB5C_U3Tf-146" target="s8pdHtV7nh9pB5C_U3Tf-180">
          <mxGeometry relative="1" as="geometry" />
        </mxCell>
        <mxCell id="s8pdHtV7nh9pB5C_U3Tf-146" value="Complete Registeration" style="whiteSpace=wrap;html=1;rounded=1;" vertex="1" parent="1">
          <mxGeometry x="1650" y="1040" width="90" height="50" as="geometry" />
        </mxCell>
        <mxCell id="s8pdHtV7nh9pB5C_U3Tf-153" value="Successful Payment" style="text;html=1;align=center;verticalAlign=middle;resizable=0;points=[];autosize=1;strokeColor=none;fillColor=none;" vertex="1" parent="1">
          <mxGeometry x="1460" y="1030" width="130" height="30" as="geometry" />
        </mxCell>
        <mxCell id="s8pdHtV7nh9pB5C_U3Tf-154" value="Unsuccessful Payment" style="text;html=1;align=center;verticalAlign=middle;resizable=0;points=[];autosize=1;strokeColor=none;fillColor=none;" vertex="1" parent="1">
          <mxGeometry x="1470" y="970" width="150" height="30" as="geometry" />
        </mxCell>
        <mxCell id="s8pdHtV7nh9pB5C_U3Tf-163" value="" style="endArrow=none;html=1;rounded=0;" edge="1" parent="1" source="s8pdHtV7nh9pB5C_U3Tf-196" target="s8pdHtV7nh9pB5C_U3Tf-162">
          <mxGeometry width="50" height="50" relative="1" as="geometry">
            <mxPoint x="1980" y="12.38" as="sourcePoint" />
            <mxPoint x="1980" y="1180" as="targetPoint" />
          </mxGeometry>
        </mxCell>
        <mxCell id="s8pdHtV7nh9pB5C_U3Tf-162" value="List of Courses Selected" style="rounded=0;whiteSpace=wrap;html=1;" vertex="1" parent="1">
          <mxGeometry x="1920" y="660" width="120" height="60" as="geometry" />
        </mxCell>
        <mxCell id="s8pdHtV7nh9pB5C_U3Tf-164" value="" style="endArrow=none;dashed=1;html=1;dashPattern=1 3;strokeWidth=2;rounded=0;exitX=1;exitY=1;exitDx=0;exitDy=0;entryX=0;entryY=0;entryDx=0;entryDy=0;" edge="1" parent="1" source="s8pdHtV7nh9pB5C_U3Tf-119" target="s8pdHtV7nh9pB5C_U3Tf-162">
          <mxGeometry width="50" height="50" relative="1" as="geometry">
            <mxPoint x="1570" y="600" as="sourcePoint" />
            <mxPoint x="1620" y="550" as="targetPoint" />
          </mxGeometry>
        </mxCell>
        <mxCell id="s8pdHtV7nh9pB5C_U3Tf-166" value="" style="endArrow=none;dashed=1;html=1;dashPattern=1 3;strokeWidth=2;rounded=0;exitX=1;exitY=1;exitDx=0;exitDy=0;entryX=0;entryY=0;entryDx=0;entryDy=0;" edge="1" parent="1" source="s8pdHtV7nh9pB5C_U3Tf-162" target="s8pdHtV7nh9pB5C_U3Tf-136">
          <mxGeometry width="50" height="50" relative="1" as="geometry">
            <mxPoint x="2470" y="722" as="sourcePoint" />
            <mxPoint x="2572" y="750" as="targetPoint" />
          </mxGeometry>
        </mxCell>
        <mxCell id="s8pdHtV7nh9pB5C_U3Tf-167" value="List of Courses&amp;nbsp;" style="rounded=0;whiteSpace=wrap;html=1;" vertex="1" parent="1">
          <mxGeometry x="1570" y="310" width="80" height="50" as="geometry" />
        </mxCell>
        <mxCell id="s8pdHtV7nh9pB5C_U3Tf-168" value="" style="endArrow=none;dashed=1;html=1;dashPattern=1 3;strokeWidth=2;rounded=0;exitX=1;exitY=1;exitDx=0;exitDy=0;entryX=0;entryY=0.25;entryDx=0;entryDy=0;" edge="1" parent="1" source="s8pdHtV7nh9pB5C_U3Tf-82" target="s8pdHtV7nh9pB5C_U3Tf-167">
          <mxGeometry width="50" height="50" relative="1" as="geometry">
            <mxPoint x="1464" y="321" as="sourcePoint" />
            <mxPoint x="1566" y="349" as="targetPoint" />
          </mxGeometry>
        </mxCell>
        <mxCell id="s8pdHtV7nh9pB5C_U3Tf-169" value="" style="endArrow=none;dashed=1;html=1;dashPattern=1 3;strokeWidth=2;rounded=0;exitX=1;exitY=0.75;exitDx=0;exitDy=0;entryX=0;entryY=0;entryDx=0;entryDy=0;" edge="1" parent="1" source="s8pdHtV7nh9pB5C_U3Tf-167" target="s8pdHtV7nh9pB5C_U3Tf-86">
          <mxGeometry width="50" height="50" relative="1" as="geometry">
            <mxPoint x="1670" y="320" as="sourcePoint" />
            <mxPoint x="1780" y="341" as="targetPoint" />
          </mxGeometry>
        </mxCell>
        <mxCell id="s8pdHtV7nh9pB5C_U3Tf-182" style="edgeStyle=orthogonalEdgeStyle;rounded=0;orthogonalLoop=1;jettySize=auto;html=1;exitX=0.5;exitY=1;exitDx=0;exitDy=0;entryX=0;entryY=0.5;entryDx=0;entryDy=0;" edge="1" parent="1" source="s8pdHtV7nh9pB5C_U3Tf-180" target="s8pdHtV7nh9pB5C_U3Tf-117">
          <mxGeometry relative="1" as="geometry" />
        </mxCell>
        <mxCell id="s8pdHtV7nh9pB5C_U3Tf-184" style="edgeStyle=orthogonalEdgeStyle;rounded=0;orthogonalLoop=1;jettySize=auto;html=1;exitX=0;exitY=0.5;exitDx=0;exitDy=0;entryX=1;entryY=0.5;entryDx=0;entryDy=0;" edge="1" parent="1" source="s8pdHtV7nh9pB5C_U3Tf-180" target="s8pdHtV7nh9pB5C_U3Tf-183">
          <mxGeometry relative="1" as="geometry" />
        </mxCell>
        <mxCell id="s8pdHtV7nh9pB5C_U3Tf-180" value="Send Enrollment Conformation" style="whiteSpace=wrap;html=1;rounded=1;" vertex="1" parent="1">
          <mxGeometry x="1650" y="1140" width="90" height="50" as="geometry" />
        </mxCell>
        <mxCell id="s8pdHtV7nh9pB5C_U3Tf-183" value="Send Confirmation" style="rounded=0;whiteSpace=wrap;html=1;" vertex="1" parent="1">
          <mxGeometry x="1410" y="1135" width="120" height="60" as="geometry" />
        </mxCell>
        <mxCell id="s8pdHtV7nh9pB5C_U3Tf-187" style="edgeStyle=orthogonalEdgeStyle;rounded=0;orthogonalLoop=1;jettySize=auto;html=1;exitX=0;exitY=0.5;exitDx=0;exitDy=0;entryX=1;entryY=0.5;entryDx=0;entryDy=0;" edge="1" parent="1" source="s8pdHtV7nh9pB5C_U3Tf-185" target="s8pdHtV7nh9pB5C_U3Tf-95">
          <mxGeometry relative="1" as="geometry" />
        </mxCell>
        <mxCell id="s8pdHtV7nh9pB5C_U3Tf-185" value="Get Help" style="whiteSpace=wrap;html=1;rounded=1;" vertex="1" parent="1">
          <mxGeometry x="1430" y="437.38" width="80" height="50" as="geometry" />
        </mxCell>
        <mxCell id="s8pdHtV7nh9pB5C_U3Tf-192" style="edgeStyle=orthogonalEdgeStyle;rounded=0;orthogonalLoop=1;jettySize=auto;html=1;exitX=0.5;exitY=1;exitDx=0;exitDy=0;entryX=0.5;entryY=0;entryDx=0;entryDy=0;" edge="1" parent="1" source="s8pdHtV7nh9pB5C_U3Tf-188" target="s8pdHtV7nh9pB5C_U3Tf-139">
          <mxGeometry relative="1" as="geometry" />
        </mxCell>
        <mxCell id="s8pdHtV7nh9pB5C_U3Tf-188" value="Pay Bill" style="whiteSpace=wrap;html=1;rounded=1;" vertex="1" parent="1">
          <mxGeometry x="1415" y="890" width="90" height="50" as="geometry" />
        </mxCell>
        <mxCell id="s8pdHtV7nh9pB5C_U3Tf-197" value="" style="endArrow=none;html=1;rounded=0;" edge="1" parent="1" target="s8pdHtV7nh9pB5C_U3Tf-196">
          <mxGeometry width="50" height="50" relative="1" as="geometry">
            <mxPoint x="1980" y="12.38" as="sourcePoint" />
            <mxPoint x="1980" y="660" as="targetPoint" />
          </mxGeometry>
        </mxCell>
        <mxCell id="s8pdHtV7nh9pB5C_U3Tf-196" value="List of Courses Unmet" style="rounded=0;whiteSpace=wrap;html=1;" vertex="1" parent="1">
          <mxGeometry x="1940" y="507.38" width="80" height="50" as="geometry" />
        </mxCell>
        <mxCell id="s8pdHtV7nh9pB5C_U3Tf-198" value="" style="endArrow=none;dashed=1;html=1;dashPattern=1 3;strokeWidth=2;rounded=0;entryX=0;entryY=0.25;entryDx=0;entryDy=0;exitX=1;exitY=1;exitDx=0;exitDy=0;" edge="1" parent="1" source="s8pdHtV7nh9pB5C_U3Tf-91" target="s8pdHtV7nh9pB5C_U3Tf-196">
          <mxGeometry width="50" height="50" relative="1" as="geometry">
            <mxPoint x="1840" y="527" as="sourcePoint" />
            <mxPoint x="1910" y="530.5" as="targetPoint" />
          </mxGeometry>
        </mxCell>
        <mxCell id="s8pdHtV7nh9pB5C_U3Tf-199" value="" style="endArrow=none;dashed=1;html=1;dashPattern=1 3;strokeWidth=2;rounded=0;entryX=0;entryY=0.25;entryDx=0;entryDy=0;exitX=1;exitY=0.5;exitDx=0;exitDy=0;" edge="1" parent="1" source="s8pdHtV7nh9pB5C_U3Tf-196" target="s8pdHtV7nh9pB5C_U3Tf-98">
          <mxGeometry width="50" height="50" relative="1" as="geometry">
            <mxPoint x="2470" y="647" as="sourcePoint" />
            <mxPoint x="2710" y="680" as="targetPoint" />
          </mxGeometry>
        </mxCell>
        <mxCell id="s8pdHtV7nh9pB5C_U3Tf-298" value="" style="group;fontSize=10;" vertex="1" connectable="0" parent="1">
          <mxGeometry x="1155" y="1350" width="1015" height="1240" as="geometry" />
        </mxCell>
        <mxCell id="s8pdHtV7nh9pB5C_U3Tf-200" value="" style="rounded=0;whiteSpace=wrap;html=1;fontSize=10;" vertex="1" parent="s8pdHtV7nh9pB5C_U3Tf-298">
          <mxGeometry y="8.625366925891404" width="1015" height="1222.7492661482172" as="geometry" />
        </mxCell>
        <mxCell id="s8pdHtV7nh9pB5C_U3Tf-201" value="Student" style="text;html=1;align=center;verticalAlign=middle;resizable=0;points=[];autosize=1;strokeColor=none;fillColor=none;fontSize=10;" vertex="1" parent="s8pdHtV7nh9pB5C_U3Tf-298">
          <mxGeometry x="144.99999999999997" y="17.250733851782808" width="60" height="30" as="geometry" />
        </mxCell>
        <mxCell id="s8pdHtV7nh9pB5C_U3Tf-202" value="System" style="text;html=1;align=center;verticalAlign=middle;resizable=0;points=[];autosize=1;strokeColor=none;fillColor=none;fontSize=10;" vertex="1" parent="s8pdHtV7nh9pB5C_U3Tf-298">
          <mxGeometry x="443.5294117647058" y="17.250733851782808" width="60" height="30" as="geometry" />
        </mxCell>
        <mxCell id="s8pdHtV7nh9pB5C_U3Tf-203" value="Finance department" style="text;html=1;align=center;verticalAlign=middle;resizable=0;points=[];autosize=1;strokeColor=none;fillColor=none;fontSize=10;" vertex="1" parent="s8pdHtV7nh9pB5C_U3Tf-298">
          <mxGeometry x="878.5294117647059" y="17.250733851782808" width="110" height="30" as="geometry" />
        </mxCell>
        <mxCell id="s8pdHtV7nh9pB5C_U3Tf-204" style="edgeStyle=orthogonalEdgeStyle;rounded=0;orthogonalLoop=1;jettySize=auto;html=1;exitX=0.5;exitY=1;exitDx=0;exitDy=0;entryX=0.5;entryY=0;entryDx=0;entryDy=0;fontSize=10;" edge="1" parent="s8pdHtV7nh9pB5C_U3Tf-298" source="s8pdHtV7nh9pB5C_U3Tf-205" target="s8pdHtV7nh9pB5C_U3Tf-207">
          <mxGeometry relative="1" as="geometry" />
        </mxCell>
        <mxCell id="s8pdHtV7nh9pB5C_U3Tf-205" value="" style="ellipse;whiteSpace=wrap;html=1;rounded=1;fontSize=10;" vertex="1" parent="s8pdHtV7nh9pB5C_U3Tf-298">
          <mxGeometry x="144.99999999999997" y="77.62830233302263" width="17.058823529411764" height="17.250733851782808" as="geometry" />
        </mxCell>
        <mxCell id="s8pdHtV7nh9pB5C_U3Tf-206" style="edgeStyle=orthogonalEdgeStyle;rounded=0;orthogonalLoop=1;jettySize=auto;html=1;exitX=1;exitY=0.5;exitDx=0;exitDy=0;fontSize=10;" edge="1" parent="s8pdHtV7nh9pB5C_U3Tf-298" source="s8pdHtV7nh9pB5C_U3Tf-207" target="s8pdHtV7nh9pB5C_U3Tf-211">
          <mxGeometry relative="1" as="geometry" />
        </mxCell>
        <mxCell id="s8pdHtV7nh9pB5C_U3Tf-207" value="Login" style="rounded=1;whiteSpace=wrap;html=1;fontSize=10;" vertex="1" parent="s8pdHtV7nh9pB5C_U3Tf-298">
          <mxGeometry x="119.41176470588233" y="120.75513696247965" width="68.23529411764706" height="34.501467703565616" as="geometry" />
        </mxCell>
        <mxCell id="s8pdHtV7nh9pB5C_U3Tf-208" value="" style="endArrow=none;html=1;rounded=0;fontSize=10;" edge="1" parent="s8pdHtV7nh9pB5C_U3Tf-298">
          <mxGeometry width="50" height="50" relative="1" as="geometry">
            <mxPoint x="315.5882352941176" as="sourcePoint" />
            <mxPoint x="315.5882352941176" y="1240" as="targetPoint" />
          </mxGeometry>
        </mxCell>
        <mxCell id="s8pdHtV7nh9pB5C_U3Tf-209" style="edgeStyle=orthogonalEdgeStyle;rounded=0;orthogonalLoop=1;jettySize=auto;html=1;exitX=0.5;exitY=1;exitDx=0;exitDy=0;entryX=0.5;entryY=1;entryDx=0;entryDy=0;fontSize=10;" edge="1" parent="s8pdHtV7nh9pB5C_U3Tf-298" source="s8pdHtV7nh9pB5C_U3Tf-211" target="s8pdHtV7nh9pB5C_U3Tf-207">
          <mxGeometry relative="1" as="geometry" />
        </mxCell>
        <mxCell id="s8pdHtV7nh9pB5C_U3Tf-210" style="edgeStyle=orthogonalEdgeStyle;rounded=0;orthogonalLoop=1;jettySize=auto;html=1;exitX=1;exitY=0.5;exitDx=0;exitDy=0;fontSize=10;" edge="1" parent="s8pdHtV7nh9pB5C_U3Tf-298" source="s8pdHtV7nh9pB5C_U3Tf-211" target="s8pdHtV7nh9pB5C_U3Tf-213">
          <mxGeometry relative="1" as="geometry" />
        </mxCell>
        <mxCell id="s8pdHtV7nh9pB5C_U3Tf-211" value="" style="rhombus;whiteSpace=wrap;html=1;rounded=1;fontSize=10;" vertex="1" parent="s8pdHtV7nh9pB5C_U3Tf-298">
          <mxGeometry x="375.2941176470588" y="120.75513696247965" width="42.64705882352941" height="34.501467703565616" as="geometry" />
        </mxCell>
        <mxCell id="s8pdHtV7nh9pB5C_U3Tf-212" style="edgeStyle=orthogonalEdgeStyle;rounded=0;orthogonalLoop=1;jettySize=auto;html=1;exitX=0;exitY=0.5;exitDx=0;exitDy=0;entryX=1;entryY=0.5;entryDx=0;entryDy=0;fontSize=10;" edge="1" parent="s8pdHtV7nh9pB5C_U3Tf-298" source="s8pdHtV7nh9pB5C_U3Tf-213" target="s8pdHtV7nh9pB5C_U3Tf-215">
          <mxGeometry relative="1" as="geometry" />
        </mxCell>
        <mxCell id="s8pdHtV7nh9pB5C_U3Tf-213" value="Show List" style="whiteSpace=wrap;html=1;rounded=1;fontSize=10;" vertex="1" parent="s8pdHtV7nh9pB5C_U3Tf-298">
          <mxGeometry x="409.41176470588226" y="215.63417314728508" width="68.23529411764706" height="43.12683462945702" as="geometry" />
        </mxCell>
        <mxCell id="s8pdHtV7nh9pB5C_U3Tf-214" style="edgeStyle=orthogonalEdgeStyle;rounded=0;orthogonalLoop=1;jettySize=auto;html=1;exitX=0.5;exitY=1;exitDx=0;exitDy=0;entryX=0;entryY=0.5;entryDx=0;entryDy=0;fontSize=10;" edge="1" parent="s8pdHtV7nh9pB5C_U3Tf-298" source="s8pdHtV7nh9pB5C_U3Tf-215" target="s8pdHtV7nh9pB5C_U3Tf-219">
          <mxGeometry relative="1" as="geometry" />
        </mxCell>
        <mxCell id="s8pdHtV7nh9pB5C_U3Tf-215" value="Submit Courses" style="whiteSpace=wrap;html=1;rounded=1;fontSize=10;" vertex="1" parent="s8pdHtV7nh9pB5C_U3Tf-298">
          <mxGeometry x="119.41176470588233" y="215.63417314728508" width="68.23529411764706" height="43.12683462945702" as="geometry" />
        </mxCell>
        <mxCell id="s8pdHtV7nh9pB5C_U3Tf-216" value="Accept" style="text;html=1;align=center;verticalAlign=middle;resizable=0;points=[];autosize=1;strokeColor=none;fillColor=none;fontSize=10;" vertex="1" parent="s8pdHtV7nh9pB5C_U3Tf-298">
          <mxGeometry x="413.67647058823525" y="112.12977003658824" width="50" height="30" as="geometry" />
        </mxCell>
        <mxCell id="s8pdHtV7nh9pB5C_U3Tf-217" value="Reject" style="text;html=1;align=center;verticalAlign=middle;resizable=0;points=[];autosize=1;strokeColor=none;fillColor=none;fontSize=10;" vertex="1" parent="s8pdHtV7nh9pB5C_U3Tf-298">
          <mxGeometry x="319.85294117647055" y="146.63123774015384" width="50" height="30" as="geometry" />
        </mxCell>
        <mxCell id="s8pdHtV7nh9pB5C_U3Tf-291" style="edgeStyle=orthogonalEdgeStyle;rounded=0;orthogonalLoop=1;jettySize=auto;html=1;exitX=0.5;exitY=1;exitDx=0;exitDy=0;entryX=0.5;entryY=0;entryDx=0;entryDy=0;fontSize=10;" edge="1" parent="s8pdHtV7nh9pB5C_U3Tf-298" source="s8pdHtV7nh9pB5C_U3Tf-219" target="s8pdHtV7nh9pB5C_U3Tf-222">
          <mxGeometry relative="1" as="geometry" />
        </mxCell>
        <mxCell id="s8pdHtV7nh9pB5C_U3Tf-219" value="Check Each Course" style="whiteSpace=wrap;html=1;rounded=1;fontSize=10;" vertex="1" parent="s8pdHtV7nh9pB5C_U3Tf-298">
          <mxGeometry x="409.41176470588226" y="301.8878424061992" width="68.23529411764706" height="43.12683462945702" as="geometry" />
        </mxCell>
        <mxCell id="s8pdHtV7nh9pB5C_U3Tf-220" style="edgeStyle=orthogonalEdgeStyle;rounded=0;orthogonalLoop=1;jettySize=auto;html=1;exitX=1;exitY=0.5;exitDx=0;exitDy=0;entryX=0;entryY=0.5;entryDx=0;entryDy=0;fontSize=10;" edge="1" parent="s8pdHtV7nh9pB5C_U3Tf-298" source="s8pdHtV7nh9pB5C_U3Tf-222" target="s8pdHtV7nh9pB5C_U3Tf-236">
          <mxGeometry relative="1" as="geometry" />
        </mxCell>
        <mxCell id="s8pdHtV7nh9pB5C_U3Tf-221" style="edgeStyle=orthogonalEdgeStyle;rounded=0;orthogonalLoop=1;jettySize=auto;html=1;exitX=0.5;exitY=1;exitDx=0;exitDy=0;entryX=0.5;entryY=0;entryDx=0;entryDy=0;fontSize=10;" edge="1" parent="s8pdHtV7nh9pB5C_U3Tf-298" source="s8pdHtV7nh9pB5C_U3Tf-222" target="s8pdHtV7nh9pB5C_U3Tf-247">
          <mxGeometry relative="1" as="geometry" />
        </mxCell>
        <mxCell id="s8pdHtV7nh9pB5C_U3Tf-222" value="" style="rhombus;whiteSpace=wrap;html=1;rounded=1;fontSize=10;" vertex="1" parent="s8pdHtV7nh9pB5C_U3Tf-298">
          <mxGeometry x="417.94117647058823" y="422.64297936867877" width="51.17647058823528" height="38.814151166511316" as="geometry" />
        </mxCell>
        <mxCell id="s8pdHtV7nh9pB5C_U3Tf-223" style="edgeStyle=orthogonalEdgeStyle;rounded=0;orthogonalLoop=1;jettySize=auto;html=1;exitX=0;exitY=0.5;exitDx=0;exitDy=0;entryX=1;entryY=0.5;entryDx=0;entryDy=0;fontSize=10;" edge="1" parent="s8pdHtV7nh9pB5C_U3Tf-298" source="s8pdHtV7nh9pB5C_U3Tf-222" target="s8pdHtV7nh9pB5C_U3Tf-225">
          <mxGeometry relative="1" as="geometry" />
        </mxCell>
        <mxCell id="s8pdHtV7nh9pB5C_U3Tf-224" style="edgeStyle=orthogonalEdgeStyle;rounded=0;orthogonalLoop=1;jettySize=auto;html=1;exitX=0;exitY=0.5;exitDx=0;exitDy=0;entryX=1;entryY=0.5;entryDx=0;entryDy=0;fontSize=10;" edge="1" parent="s8pdHtV7nh9pB5C_U3Tf-298" source="s8pdHtV7nh9pB5C_U3Tf-225" target="s8pdHtV7nh9pB5C_U3Tf-283">
          <mxGeometry relative="1" as="geometry" />
        </mxCell>
        <mxCell id="s8pdHtV7nh9pB5C_U3Tf-225" value="Notify Student Prerequisits unmet" style="whiteSpace=wrap;html=1;rounded=1;fontSize=10;" vertex="1" parent="s8pdHtV7nh9pB5C_U3Tf-298">
          <mxGeometry x="324.1176470588235" y="420.486637637206" width="68.23529411764706" height="43.12683462945702" as="geometry" />
        </mxCell>
        <mxCell id="s8pdHtV7nh9pB5C_U3Tf-226" value="Prerequisits Unmet" style="text;html=1;align=center;verticalAlign=middle;resizable=0;points=[];autosize=1;strokeColor=none;fillColor=none;fontSize=10;" vertex="1" parent="s8pdHtV7nh9pB5C_U3Tf-298">
          <mxGeometry x="324.1176470588235" y="401.1830664570609" width="110" height="30" as="geometry" />
        </mxCell>
        <mxCell id="s8pdHtV7nh9pB5C_U3Tf-227" style="edgeStyle=orthogonalEdgeStyle;rounded=0;orthogonalLoop=1;jettySize=auto;html=1;exitX=0.5;exitY=1;exitDx=0;exitDy=0;entryX=0;entryY=0.5;entryDx=0;entryDy=0;fontSize=10;" edge="1" parent="s8pdHtV7nh9pB5C_U3Tf-298" source="s8pdHtV7nh9pB5C_U3Tf-229" target="s8pdHtV7nh9pB5C_U3Tf-231">
          <mxGeometry relative="1" as="geometry" />
        </mxCell>
        <mxCell id="s8pdHtV7nh9pB5C_U3Tf-228" style="edgeStyle=orthogonalEdgeStyle;rounded=0;orthogonalLoop=1;jettySize=auto;html=1;exitX=0.5;exitY=0;exitDx=0;exitDy=0;entryX=0;entryY=0;entryDx=0;entryDy=0;fontSize=10;" edge="1" parent="s8pdHtV7nh9pB5C_U3Tf-298" source="s8pdHtV7nh9pB5C_U3Tf-229" target="s8pdHtV7nh9pB5C_U3Tf-213">
          <mxGeometry relative="1" as="geometry" />
        </mxCell>
        <mxCell id="s8pdHtV7nh9pB5C_U3Tf-229" value="" style="rhombus;whiteSpace=wrap;html=1;rounded=1;fontSize=10;" vertex="1" parent="s8pdHtV7nh9pB5C_U3Tf-298">
          <mxGeometry x="59.70588235294117" y="422.64297936867877" width="51.17647058823528" height="38.814151166511316" as="geometry" />
        </mxCell>
        <mxCell id="s8pdHtV7nh9pB5C_U3Tf-230" style="edgeStyle=orthogonalEdgeStyle;rounded=0;orthogonalLoop=1;jettySize=auto;html=1;exitX=0.5;exitY=1;exitDx=0;exitDy=0;entryX=1;entryY=0.5;entryDx=0;entryDy=0;fontSize=10;" edge="1" parent="s8pdHtV7nh9pB5C_U3Tf-298" source="s8pdHtV7nh9pB5C_U3Tf-231" target="s8pdHtV7nh9pB5C_U3Tf-245">
          <mxGeometry relative="1" as="geometry" />
        </mxCell>
        <mxCell id="s8pdHtV7nh9pB5C_U3Tf-231" value="Notify Meeting" style="whiteSpace=wrap;html=1;rounded=1;fontSize=10;" vertex="1" parent="s8pdHtV7nh9pB5C_U3Tf-298">
          <mxGeometry x="695.1470588235293" y="522.7718271866" width="81.02941176470587" height="47.11175414921885" as="geometry" />
        </mxCell>
        <mxCell id="s8pdHtV7nh9pB5C_U3Tf-232" value="" style="endArrow=none;html=1;rounded=0;fontSize=10;" edge="1" parent="s8pdHtV7nh9pB5C_U3Tf-298" source="s8pdHtV7nh9pB5C_U3Tf-272">
          <mxGeometry width="50" height="50" relative="1" as="geometry">
            <mxPoint x="631.1764705882352" y="71.66513696247965" as="sourcePoint" />
            <mxPoint x="631" y="1240" as="targetPoint" />
          </mxGeometry>
        </mxCell>
        <mxCell id="s8pdHtV7nh9pB5C_U3Tf-233" value="No: submit another course" style="text;html=1;align=center;verticalAlign=middle;resizable=0;points=[];autosize=1;strokeColor=none;fillColor=none;rotation=90;fontSize=10;" vertex="1" parent="s8pdHtV7nh9pB5C_U3Tf-298">
          <mxGeometry x="12.79411764705882" y="342.85833530418336" width="140" height="30" as="geometry" />
        </mxCell>
        <mxCell id="s8pdHtV7nh9pB5C_U3Tf-234" value="Yes: meet with advisor" style="text;html=1;align=center;verticalAlign=middle;resizable=0;points=[];autosize=1;strokeColor=none;fillColor=none;rotation=90;fontSize=10;" vertex="1" parent="s8pdHtV7nh9pB5C_U3Tf-298">
          <mxGeometry x="21.323529411764707" y="508.8966486275928" width="120" height="30" as="geometry" />
        </mxCell>
        <mxCell id="s8pdHtV7nh9pB5C_U3Tf-294" style="edgeStyle=orthogonalEdgeStyle;rounded=0;orthogonalLoop=1;jettySize=auto;html=1;exitX=0.5;exitY=0;exitDx=0;exitDy=0;entryX=1;entryY=0.75;entryDx=0;entryDy=0;fontSize=10;" edge="1" parent="s8pdHtV7nh9pB5C_U3Tf-298" source="s8pdHtV7nh9pB5C_U3Tf-236" target="s8pdHtV7nh9pB5C_U3Tf-293">
          <mxGeometry relative="1" as="geometry" />
        </mxCell>
        <mxCell id="s8pdHtV7nh9pB5C_U3Tf-236" value="Waiting List for course" style="whiteSpace=wrap;html=1;rounded=1;fontSize=10;" vertex="1" parent="s8pdHtV7nh9pB5C_U3Tf-298">
          <mxGeometry x="520.2941176470588" y="420.486637637206" width="68.23529411764706" height="43.12683462945702" as="geometry" />
        </mxCell>
        <mxCell id="s8pdHtV7nh9pB5C_U3Tf-237" value="full" style="text;html=1;align=center;verticalAlign=middle;resizable=0;points=[];autosize=1;strokeColor=none;fillColor=none;fontSize=10;" vertex="1" parent="s8pdHtV7nh9pB5C_U3Tf-298">
          <mxGeometry x="477.64705882352933" y="407.54858724836885" width="40" height="30" as="geometry" />
        </mxCell>
        <mxCell id="s8pdHtV7nh9pB5C_U3Tf-238" style="edgeStyle=orthogonalEdgeStyle;rounded=0;orthogonalLoop=1;jettySize=auto;html=1;exitX=0.5;exitY=0;exitDx=0;exitDy=0;entryX=1;entryY=0.5;entryDx=0;entryDy=0;fontSize=10;" edge="1" parent="s8pdHtV7nh9pB5C_U3Tf-298" source="s8pdHtV7nh9pB5C_U3Tf-240" target="s8pdHtV7nh9pB5C_U3Tf-213">
          <mxGeometry relative="1" as="geometry" />
        </mxCell>
        <mxCell id="s8pdHtV7nh9pB5C_U3Tf-239" style="edgeStyle=orthogonalEdgeStyle;rounded=0;orthogonalLoop=1;jettySize=auto;html=1;exitX=0;exitY=0.5;exitDx=0;exitDy=0;entryX=1;entryY=0.5;entryDx=0;entryDy=0;fontSize=10;" edge="1" parent="s8pdHtV7nh9pB5C_U3Tf-298" source="s8pdHtV7nh9pB5C_U3Tf-240" target="s8pdHtV7nh9pB5C_U3Tf-219">
          <mxGeometry relative="1" as="geometry" />
        </mxCell>
        <mxCell id="s8pdHtV7nh9pB5C_U3Tf-240" value="" style="rhombus;whiteSpace=wrap;html=1;rounded=1;fontSize=10;" vertex="1" parent="s8pdHtV7nh9pB5C_U3Tf-298">
          <mxGeometry x="528.8235294117646" y="304.04418413767195" width="51.17647058823528" height="38.814151166511316" as="geometry" />
        </mxCell>
        <mxCell id="s8pdHtV7nh9pB5C_U3Tf-241" value="Yes" style="text;html=1;align=center;verticalAlign=middle;resizable=0;points=[];autosize=1;strokeColor=none;fillColor=none;fontSize=10;" vertex="1" parent="s8pdHtV7nh9pB5C_U3Tf-298">
          <mxGeometry x="494.7058823529411" y="299.8350050778369" width="40" height="30" as="geometry" />
        </mxCell>
        <mxCell id="s8pdHtV7nh9pB5C_U3Tf-242" value="No" style="text;html=1;align=center;verticalAlign=middle;resizable=0;points=[];autosize=1;strokeColor=none;fillColor=none;fontSize=10;" vertex="1" parent="s8pdHtV7nh9pB5C_U3Tf-298">
          <mxGeometry x="554.4117647058823" y="273.95890430016266" width="40" height="30" as="geometry" />
        </mxCell>
        <mxCell id="s8pdHtV7nh9pB5C_U3Tf-243" value="Advisor" style="text;html=1;align=center;verticalAlign=middle;resizable=0;points=[];autosize=1;strokeColor=none;fillColor=none;fontSize=10;" vertex="1" parent="s8pdHtV7nh9pB5C_U3Tf-298">
          <mxGeometry x="703.676470588235" y="17.250733851782808" width="60" height="30" as="geometry" />
        </mxCell>
        <mxCell id="s8pdHtV7nh9pB5C_U3Tf-244" value="" style="endArrow=none;html=1;rounded=0;fontSize=10;" edge="1" parent="s8pdHtV7nh9pB5C_U3Tf-298">
          <mxGeometry width="50" height="50" relative="1" as="geometry">
            <mxPoint x="827.3529411764705" as="sourcePoint" />
            <mxPoint x="827.3529411764705" y="1231.3746330741083" as="targetPoint" />
          </mxGeometry>
        </mxCell>
        <mxCell id="s8pdHtV7nh9pB5C_U3Tf-245" value="" style="ellipse;whiteSpace=wrap;html=1;rounded=1;fontSize=10;" vertex="1" parent="s8pdHtV7nh9pB5C_U3Tf-298">
          <mxGeometry x="485.11029411764696" y="1130.53243151876" width="19.191176470588232" height="17.250733851782808" as="geometry" />
        </mxCell>
        <mxCell id="s8pdHtV7nh9pB5C_U3Tf-246" style="edgeStyle=orthogonalEdgeStyle;rounded=0;orthogonalLoop=1;jettySize=auto;html=1;exitX=0;exitY=0.5;exitDx=0;exitDy=0;entryX=0.5;entryY=0;entryDx=0;entryDy=0;fontSize=10;" edge="1" parent="s8pdHtV7nh9pB5C_U3Tf-298" source="s8pdHtV7nh9pB5C_U3Tf-247" target="s8pdHtV7nh9pB5C_U3Tf-250">
          <mxGeometry relative="1" as="geometry" />
        </mxCell>
        <mxCell id="s8pdHtV7nh9pB5C_U3Tf-247" value="Generate preliminary registration slip" style="rounded=1;whiteSpace=wrap;html=1;fontSize=10;" vertex="1" parent="s8pdHtV7nh9pB5C_U3Tf-298">
          <mxGeometry x="394.485294117647" y="554.6856848123983" width="98.08823529411764" height="51.75220155534842" as="geometry" />
        </mxCell>
        <mxCell id="s8pdHtV7nh9pB5C_U3Tf-248" value="accept" style="text;html=1;align=center;verticalAlign=middle;resizable=0;points=[];autosize=1;strokeColor=none;fillColor=none;fontSize=10;" vertex="1" parent="s8pdHtV7nh9pB5C_U3Tf-298">
          <mxGeometry x="396.6176470588235" y="489.9954328682128" width="50" height="30" as="geometry" />
        </mxCell>
        <mxCell id="s8pdHtV7nh9pB5C_U3Tf-249" style="edgeStyle=orthogonalEdgeStyle;rounded=0;orthogonalLoop=1;jettySize=auto;html=1;exitX=0.5;exitY=1;exitDx=0;exitDy=0;entryX=0.5;entryY=0;entryDx=0;entryDy=0;fontSize=10;" edge="1" parent="s8pdHtV7nh9pB5C_U3Tf-298" source="s8pdHtV7nh9pB5C_U3Tf-250" target="s8pdHtV7nh9pB5C_U3Tf-253">
          <mxGeometry relative="1" as="geometry" />
        </mxCell>
        <mxCell id="s8pdHtV7nh9pB5C_U3Tf-250" value="Confirmation Slip" style="whiteSpace=wrap;html=1;rounded=1;fontSize=10;" vertex="1" parent="s8pdHtV7nh9pB5C_U3Tf-298">
          <mxGeometry x="127.94117647058823" y="600.0723655764386" width="76.76470588235293" height="43.12683462945702" as="geometry" />
        </mxCell>
        <mxCell id="s8pdHtV7nh9pB5C_U3Tf-251" style="edgeStyle=orthogonalEdgeStyle;rounded=0;orthogonalLoop=1;jettySize=auto;html=1;exitX=0.5;exitY=1;exitDx=0;exitDy=0;entryX=0;entryY=0.5;entryDx=0;entryDy=0;fontSize=10;" edge="1" parent="s8pdHtV7nh9pB5C_U3Tf-298" source="s8pdHtV7nh9pB5C_U3Tf-253" target="s8pdHtV7nh9pB5C_U3Tf-255">
          <mxGeometry relative="1" as="geometry" />
        </mxCell>
        <mxCell id="s8pdHtV7nh9pB5C_U3Tf-252" style="edgeStyle=orthogonalEdgeStyle;rounded=0;orthogonalLoop=1;jettySize=auto;html=1;exitX=1;exitY=0.5;exitDx=0;exitDy=0;entryX=0.5;entryY=0;entryDx=0;entryDy=0;fontSize=10;" edge="1" parent="s8pdHtV7nh9pB5C_U3Tf-298" source="s8pdHtV7nh9pB5C_U3Tf-253" target="s8pdHtV7nh9pB5C_U3Tf-266">
          <mxGeometry relative="1" as="geometry" />
        </mxCell>
        <mxCell id="s8pdHtV7nh9pB5C_U3Tf-253" value="" style="rhombus;whiteSpace=wrap;html=1;rounded=1;fontSize=10;" vertex="1" parent="s8pdHtV7nh9pB5C_U3Tf-298">
          <mxGeometry x="140.73529411764704" y="686.3260348353527" width="51.17647058823528" height="38.814151166511316" as="geometry" />
        </mxCell>
        <mxCell id="s8pdHtV7nh9pB5C_U3Tf-254" style="edgeStyle=orthogonalEdgeStyle;rounded=0;orthogonalLoop=1;jettySize=auto;html=1;exitX=1;exitY=0.5;exitDx=0;exitDy=0;entryX=0.5;entryY=0;entryDx=0;entryDy=0;fontSize=10;" edge="1" parent="s8pdHtV7nh9pB5C_U3Tf-298" source="s8pdHtV7nh9pB5C_U3Tf-255" target="s8pdHtV7nh9pB5C_U3Tf-261">
          <mxGeometry relative="1" as="geometry" />
        </mxCell>
        <mxCell id="s8pdHtV7nh9pB5C_U3Tf-255" value="Generate Fee" style="whiteSpace=wrap;html=1;rounded=1;fontSize=10;" vertex="1" parent="s8pdHtV7nh9pB5C_U3Tf-298">
          <mxGeometry x="405.14705882352933" y="742.3909198536468" width="76.76470588235293" height="43.12683462945702" as="geometry" />
        </mxCell>
        <mxCell id="s8pdHtV7nh9pB5C_U3Tf-256" value="Confirmed" style="text;html=1;align=center;verticalAlign=middle;resizable=0;points=[];autosize=1;strokeColor=none;fillColor=none;fontSize=10;" vertex="1" parent="s8pdHtV7nh9pB5C_U3Tf-298">
          <mxGeometry x="191.91176470588235" y="733.7655529277555" width="70" height="30" as="geometry" />
        </mxCell>
        <mxCell id="s8pdHtV7nh9pB5C_U3Tf-257" value="Didnt confirm under 3 days" style="text;html=1;align=center;verticalAlign=middle;resizable=0;points=[];autosize=1;strokeColor=none;fillColor=none;fontSize=10;" vertex="1" parent="s8pdHtV7nh9pB5C_U3Tf-298">
          <mxGeometry x="187.6470588235294" y="673.3879844465156" width="140" height="30" as="geometry" />
        </mxCell>
        <mxCell id="s8pdHtV7nh9pB5C_U3Tf-258" style="edgeStyle=orthogonalEdgeStyle;rounded=0;orthogonalLoop=1;jettySize=auto;html=1;exitX=0;exitY=0.5;exitDx=0;exitDy=0;entryX=1;entryY=0.5;entryDx=0;entryDy=0;fontSize=10;" edge="1" parent="s8pdHtV7nh9pB5C_U3Tf-298" source="s8pdHtV7nh9pB5C_U3Tf-259" target="s8pdHtV7nh9pB5C_U3Tf-285">
          <mxGeometry relative="1" as="geometry" />
        </mxCell>
        <mxCell id="s8pdHtV7nh9pB5C_U3Tf-259" value="Ask for payment" style="whiteSpace=wrap;html=1;rounded=1;fontSize=10;" vertex="1" parent="s8pdHtV7nh9pB5C_U3Tf-298">
          <mxGeometry x="366.76470588235287" y="828.6445891125609" width="76.76470588235293" height="43.12683462945702" as="geometry" />
        </mxCell>
        <mxCell id="s8pdHtV7nh9pB5C_U3Tf-260" style="edgeStyle=orthogonalEdgeStyle;rounded=0;orthogonalLoop=1;jettySize=auto;html=1;exitX=0;exitY=0.5;exitDx=0;exitDy=0;entryX=0.5;entryY=0;entryDx=0;entryDy=0;fontSize=10;" edge="1" parent="s8pdHtV7nh9pB5C_U3Tf-298" source="s8pdHtV7nh9pB5C_U3Tf-261" target="s8pdHtV7nh9pB5C_U3Tf-259">
          <mxGeometry relative="1" as="geometry" />
        </mxCell>
        <mxCell id="s8pdHtV7nh9pB5C_U3Tf-261" value="Generate Bill/Invoice" style="whiteSpace=wrap;html=1;rounded=1;fontSize=10;" vertex="1" parent="s8pdHtV7nh9pB5C_U3Tf-298">
          <mxGeometry x="861.470588235294" y="785.517754483104" width="76.76470588235293" height="43.12683462945702" as="geometry" />
        </mxCell>
        <mxCell id="s8pdHtV7nh9pB5C_U3Tf-262" style="edgeStyle=orthogonalEdgeStyle;rounded=0;orthogonalLoop=1;jettySize=auto;html=1;exitX=1;exitY=0.5;exitDx=0;exitDy=0;entryX=0;entryY=0.5;entryDx=0;entryDy=0;fontSize=10;" edge="1" parent="s8pdHtV7nh9pB5C_U3Tf-298" source="s8pdHtV7nh9pB5C_U3Tf-264" target="s8pdHtV7nh9pB5C_U3Tf-266">
          <mxGeometry relative="1" as="geometry" />
        </mxCell>
        <mxCell id="s8pdHtV7nh9pB5C_U3Tf-263" style="edgeStyle=orthogonalEdgeStyle;rounded=0;orthogonalLoop=1;jettySize=auto;html=1;exitX=0.5;exitY=1;exitDx=0;exitDy=0;entryX=0;entryY=0.5;entryDx=0;entryDy=0;fontSize=10;" edge="1" parent="s8pdHtV7nh9pB5C_U3Tf-298" source="s8pdHtV7nh9pB5C_U3Tf-264" target="s8pdHtV7nh9pB5C_U3Tf-268">
          <mxGeometry relative="1" as="geometry" />
        </mxCell>
        <mxCell id="s8pdHtV7nh9pB5C_U3Tf-264" value="" style="rhombus;whiteSpace=wrap;html=1;rounded=1;fontSize=10;" vertex="1" parent="s8pdHtV7nh9pB5C_U3Tf-298">
          <mxGeometry x="162.05882352941174" y="901.9602079826378" width="51.17647058823528" height="38.814151166511316" as="geometry" />
        </mxCell>
        <mxCell id="s8pdHtV7nh9pB5C_U3Tf-265" style="edgeStyle=orthogonalEdgeStyle;rounded=0;orthogonalLoop=1;jettySize=auto;html=1;exitX=0.5;exitY=1;exitDx=0;exitDy=0;entryX=0.5;entryY=0;entryDx=0;entryDy=0;fontSize=10;" edge="1" parent="s8pdHtV7nh9pB5C_U3Tf-298" source="s8pdHtV7nh9pB5C_U3Tf-266" target="s8pdHtV7nh9pB5C_U3Tf-245">
          <mxGeometry relative="1" as="geometry" />
        </mxCell>
        <mxCell id="s8pdHtV7nh9pB5C_U3Tf-266" value="Cancelled" style="whiteSpace=wrap;html=1;rounded=1;fontSize=10;" vertex="1" parent="s8pdHtV7nh9pB5C_U3Tf-298">
          <mxGeometry x="456.32352941176464" y="899.8038662511651" width="76.76470588235293" height="43.12683462945702" as="geometry" />
        </mxCell>
        <mxCell id="s8pdHtV7nh9pB5C_U3Tf-267" style="edgeStyle=orthogonalEdgeStyle;rounded=0;orthogonalLoop=1;jettySize=auto;html=1;exitX=0.5;exitY=1;exitDx=0;exitDy=0;entryX=0.5;entryY=0;entryDx=0;entryDy=0;fontSize=10;" edge="1" parent="s8pdHtV7nh9pB5C_U3Tf-298" source="s8pdHtV7nh9pB5C_U3Tf-268" target="s8pdHtV7nh9pB5C_U3Tf-280">
          <mxGeometry relative="1" as="geometry" />
        </mxCell>
        <mxCell id="s8pdHtV7nh9pB5C_U3Tf-268" value="Complete Registeration" style="whiteSpace=wrap;html=1;rounded=1;fontSize=10;" vertex="1" parent="s8pdHtV7nh9pB5C_U3Tf-298">
          <mxGeometry x="349.70588235294116" y="958.0250930009319" width="76.76470588235293" height="43.12683462945702" as="geometry" />
        </mxCell>
        <mxCell id="s8pdHtV7nh9pB5C_U3Tf-269" value="Successful Payment" style="text;html=1;align=center;verticalAlign=middle;resizable=0;points=[];autosize=1;strokeColor=none;fillColor=none;fontSize=10;" vertex="1" parent="s8pdHtV7nh9pB5C_U3Tf-298">
          <mxGeometry x="196.17647058823528" y="949.3997260750407" width="110" height="30" as="geometry" />
        </mxCell>
        <mxCell id="s8pdHtV7nh9pB5C_U3Tf-270" value="Unsuccessful Payment" style="text;html=1;align=center;verticalAlign=middle;resizable=0;points=[];autosize=1;strokeColor=none;fillColor=none;fontSize=10;" vertex="1" parent="s8pdHtV7nh9pB5C_U3Tf-298">
          <mxGeometry x="204.70588235294113" y="897.6475245196923" width="130" height="30" as="geometry" />
        </mxCell>
        <mxCell id="s8pdHtV7nh9pB5C_U3Tf-271" value="" style="endArrow=none;html=1;rounded=0;fontSize=10;" edge="1" parent="s8pdHtV7nh9pB5C_U3Tf-298" source="s8pdHtV7nh9pB5C_U3Tf-287" target="s8pdHtV7nh9pB5C_U3Tf-272">
          <mxGeometry width="50" height="50" relative="1" as="geometry">
            <mxPoint x="631.1764705882352" y="71.66513696247965" as="sourcePoint" />
            <mxPoint x="631.1764705882352" y="1078.7802299634118" as="targetPoint" />
          </mxGeometry>
        </mxCell>
        <mxCell id="s8pdHtV7nh9pB5C_U3Tf-272" value="List of Courses Selected" style="rounded=0;whiteSpace=wrap;html=1;fontSize=10;" vertex="1" parent="s8pdHtV7nh9pB5C_U3Tf-298">
          <mxGeometry x="579.9999999999999" y="630.2611498170587" width="102.35294117647057" height="51.75220155534842" as="geometry" />
        </mxCell>
        <mxCell id="s8pdHtV7nh9pB5C_U3Tf-273" value="" style="endArrow=none;dashed=1;html=1;dashPattern=1 3;strokeWidth=2;rounded=0;exitX=1;exitY=1;exitDx=0;exitDy=0;entryX=0;entryY=0;entryDx=0;entryDy=0;fontSize=10;" edge="1" parent="s8pdHtV7nh9pB5C_U3Tf-298" source="s8pdHtV7nh9pB5C_U3Tf-247" target="s8pdHtV7nh9pB5C_U3Tf-272">
          <mxGeometry width="50" height="50" relative="1" as="geometry">
            <mxPoint x="281.4705882352941" y="578.5089482617103" as="sourcePoint" />
            <mxPoint x="324.1176470588235" y="535.3821136322532" as="targetPoint" />
          </mxGeometry>
        </mxCell>
        <mxCell id="s8pdHtV7nh9pB5C_U3Tf-274" value="" style="endArrow=none;dashed=1;html=1;dashPattern=1 3;strokeWidth=2;rounded=0;exitX=1;exitY=1;exitDx=0;exitDy=0;entryX=0;entryY=0;entryDx=0;entryDy=0;fontSize=10;" edge="1" parent="s8pdHtV7nh9pB5C_U3Tf-298" source="s8pdHtV7nh9pB5C_U3Tf-272" target="s8pdHtV7nh9pB5C_U3Tf-261">
          <mxGeometry width="50" height="50" relative="1" as="geometry">
            <mxPoint x="1049.1176470588232" y="683.7384247575853" as="sourcePoint" />
            <mxPoint x="1136.1176470588234" y="707.8894521500813" as="targetPoint" />
          </mxGeometry>
        </mxCell>
        <mxCell id="s8pdHtV7nh9pB5C_U3Tf-275" value="List of Courses&amp;nbsp;" style="rounded=0;whiteSpace=wrap;html=1;fontSize=10;" vertex="1" parent="s8pdHtV7nh9pB5C_U3Tf-298">
          <mxGeometry x="281.4705882352941" y="265.33353737427126" width="68.23529411764706" height="43.12683462945702" as="geometry" />
        </mxCell>
        <mxCell id="s8pdHtV7nh9pB5C_U3Tf-276" value="" style="endArrow=none;dashed=1;html=1;dashPattern=1 3;strokeWidth=2;rounded=0;exitX=1;exitY=1;exitDx=0;exitDy=0;entryX=0;entryY=0.25;entryDx=0;entryDy=0;fontSize=10;" edge="1" parent="s8pdHtV7nh9pB5C_U3Tf-298" source="s8pdHtV7nh9pB5C_U3Tf-215" target="s8pdHtV7nh9pB5C_U3Tf-275">
          <mxGeometry width="50" height="50" relative="1" as="geometry">
            <mxPoint x="191.05882352941174" y="274.8214409927518" as="sourcePoint" />
            <mxPoint x="278.05882352941177" y="298.9724683852478" as="targetPoint" />
          </mxGeometry>
        </mxCell>
        <mxCell id="s8pdHtV7nh9pB5C_U3Tf-277" value="" style="endArrow=none;dashed=1;html=1;dashPattern=1 3;strokeWidth=2;rounded=0;exitX=1;exitY=0.75;exitDx=0;exitDy=0;entryX=0;entryY=0;entryDx=0;entryDy=0;fontSize=10;" edge="1" parent="s8pdHtV7nh9pB5C_U3Tf-298" source="s8pdHtV7nh9pB5C_U3Tf-275" target="s8pdHtV7nh9pB5C_U3Tf-219">
          <mxGeometry width="50" height="50" relative="1" as="geometry">
            <mxPoint x="366.76470588235287" y="273.95890430016266" as="sourcePoint" />
            <mxPoint x="460.5882352941176" y="292.07217484453463" as="targetPoint" />
          </mxGeometry>
        </mxCell>
        <mxCell id="s8pdHtV7nh9pB5C_U3Tf-278" style="edgeStyle=orthogonalEdgeStyle;rounded=0;orthogonalLoop=1;jettySize=auto;html=1;exitX=0.5;exitY=1;exitDx=0;exitDy=0;entryX=0;entryY=0.5;entryDx=0;entryDy=0;fontSize=10;" edge="1" parent="s8pdHtV7nh9pB5C_U3Tf-298" source="s8pdHtV7nh9pB5C_U3Tf-280" target="s8pdHtV7nh9pB5C_U3Tf-245">
          <mxGeometry relative="1" as="geometry" />
        </mxCell>
        <mxCell id="s8pdHtV7nh9pB5C_U3Tf-279" style="edgeStyle=orthogonalEdgeStyle;rounded=0;orthogonalLoop=1;jettySize=auto;html=1;exitX=0;exitY=0.5;exitDx=0;exitDy=0;entryX=1;entryY=0.5;entryDx=0;entryDy=0;fontSize=10;" edge="1" parent="s8pdHtV7nh9pB5C_U3Tf-298" source="s8pdHtV7nh9pB5C_U3Tf-280" target="s8pdHtV7nh9pB5C_U3Tf-281">
          <mxGeometry relative="1" as="geometry" />
        </mxCell>
        <mxCell id="s8pdHtV7nh9pB5C_U3Tf-280" value="Send Enrollment Conformation" style="whiteSpace=wrap;html=1;rounded=1;fontSize=10;" vertex="1" parent="s8pdHtV7nh9pB5C_U3Tf-298">
          <mxGeometry x="349.70588235294116" y="1044.2787622598464" width="76.76470588235293" height="43.12683462945702" as="geometry" />
        </mxCell>
        <mxCell id="s8pdHtV7nh9pB5C_U3Tf-281" value="Send Confirmation" style="rounded=0;whiteSpace=wrap;html=1;fontSize=10;" vertex="1" parent="s8pdHtV7nh9pB5C_U3Tf-298">
          <mxGeometry x="144.99999999999997" y="1039.9660787969003" width="102.35294117647057" height="51.75220155534842" as="geometry" />
        </mxCell>
        <mxCell id="s8pdHtV7nh9pB5C_U3Tf-282" style="edgeStyle=orthogonalEdgeStyle;rounded=0;orthogonalLoop=1;jettySize=auto;html=1;exitX=0;exitY=0.5;exitDx=0;exitDy=0;entryX=1;entryY=0.5;entryDx=0;entryDy=0;fontSize=10;" edge="1" parent="s8pdHtV7nh9pB5C_U3Tf-298" source="s8pdHtV7nh9pB5C_U3Tf-283" target="s8pdHtV7nh9pB5C_U3Tf-229">
          <mxGeometry relative="1" as="geometry" />
        </mxCell>
        <mxCell id="s8pdHtV7nh9pB5C_U3Tf-283" value="Get Help" style="whiteSpace=wrap;html=1;rounded=1;fontSize=10;" vertex="1" parent="s8pdHtV7nh9pB5C_U3Tf-298">
          <mxGeometry x="162.05882352941174" y="420.486637637206" width="68.23529411764706" height="43.12683462945702" as="geometry" />
        </mxCell>
        <mxCell id="s8pdHtV7nh9pB5C_U3Tf-284" style="edgeStyle=orthogonalEdgeStyle;rounded=0;orthogonalLoop=1;jettySize=auto;html=1;exitX=0.5;exitY=1;exitDx=0;exitDy=0;entryX=0.5;entryY=0;entryDx=0;entryDy=0;fontSize=10;" edge="1" parent="s8pdHtV7nh9pB5C_U3Tf-298" source="s8pdHtV7nh9pB5C_U3Tf-285" target="s8pdHtV7nh9pB5C_U3Tf-264">
          <mxGeometry relative="1" as="geometry" />
        </mxCell>
        <mxCell id="s8pdHtV7nh9pB5C_U3Tf-285" value="Pay Bill" style="whiteSpace=wrap;html=1;rounded=1;fontSize=10;" vertex="1" parent="s8pdHtV7nh9pB5C_U3Tf-298">
          <mxGeometry x="149.26470588235293" y="828.6445891125609" width="76.76470588235293" height="43.12683462945702" as="geometry" />
        </mxCell>
        <mxCell id="s8pdHtV7nh9pB5C_U3Tf-286" value="" style="endArrow=none;html=1;rounded=0;fontSize=10;" edge="1" parent="s8pdHtV7nh9pB5C_U3Tf-298" target="s8pdHtV7nh9pB5C_U3Tf-287">
          <mxGeometry width="50" height="50" relative="1" as="geometry">
            <mxPoint x="631.1764705882352" as="sourcePoint" />
            <mxPoint x="631.1764705882352" y="679.3511498170587" as="targetPoint" />
          </mxGeometry>
        </mxCell>
        <mxCell id="s8pdHtV7nh9pB5C_U3Tf-287" value="List of Courses Unmet" style="rounded=0;whiteSpace=wrap;html=1;fontSize=10;" vertex="1" parent="s8pdHtV7nh9pB5C_U3Tf-298">
          <mxGeometry x="597.0588235294117" y="498.6207997941042" width="68.23529411764706" height="43.12683462945702" as="geometry" />
        </mxCell>
        <mxCell id="s8pdHtV7nh9pB5C_U3Tf-288" value="" style="endArrow=none;dashed=1;html=1;dashPattern=1 3;strokeWidth=2;rounded=0;entryX=0;entryY=0.25;entryDx=0;entryDy=0;exitX=1;exitY=1;exitDx=0;exitDy=0;fontSize=10;" edge="1" parent="s8pdHtV7nh9pB5C_U3Tf-298" source="s8pdHtV7nh9pB5C_U3Tf-225" target="s8pdHtV7nh9pB5C_U3Tf-287">
          <mxGeometry width="50" height="50" relative="1" as="geometry">
            <mxPoint x="511.7647058823529" y="564.633769702703" as="sourcePoint" />
            <mxPoint x="571.4705882352939" y="567.652648126765" as="targetPoint" />
          </mxGeometry>
        </mxCell>
        <mxCell id="s8pdHtV7nh9pB5C_U3Tf-289" value="" style="endArrow=none;dashed=1;html=1;dashPattern=1 3;strokeWidth=2;rounded=0;entryX=0;entryY=0.25;entryDx=0;entryDy=0;exitX=1;exitY=0.5;exitDx=0;exitDy=0;fontSize=10;" edge="1" parent="s8pdHtV7nh9pB5C_U3Tf-298" source="s8pdHtV7nh9pB5C_U3Tf-287" target="s8pdHtV7nh9pB5C_U3Tf-231">
          <mxGeometry width="50" height="50" relative="1" as="geometry">
            <mxPoint x="1049.1176470588232" y="619.0481728133998" as="sourcePoint" />
            <mxPoint x="1253.8235294117644" y="647.5118836688414" as="targetPoint" />
          </mxGeometry>
        </mxCell>
        <mxCell id="s8pdHtV7nh9pB5C_U3Tf-295" style="edgeStyle=orthogonalEdgeStyle;rounded=0;orthogonalLoop=1;jettySize=auto;html=1;exitX=1;exitY=0.25;exitDx=0;exitDy=0;entryX=0.5;entryY=1;entryDx=0;entryDy=0;fontSize=10;" edge="1" parent="s8pdHtV7nh9pB5C_U3Tf-298" source="s8pdHtV7nh9pB5C_U3Tf-293" target="s8pdHtV7nh9pB5C_U3Tf-240">
          <mxGeometry relative="1" as="geometry" />
        </mxCell>
        <mxCell id="s8pdHtV7nh9pB5C_U3Tf-293" value="Remain in Waiting List" style="whiteSpace=wrap;html=1;rounded=1;fontSize=10;" vertex="1" parent="s8pdHtV7nh9pB5C_U3Tf-298">
          <mxGeometry x="162.05882352941174" y="353.6400439615476" width="68.23529411764706" height="43.12683462945702" as="geometry" />
        </mxCell>
      </root>
    </mxGraphModel>
  </diagram>
</mxfile>
